<?xml version="1.0" encoding="UTF-8" standalone="no"?>
<svg
   sodipodi:docname="nsis_un_icon.svg"
   inkscape:version="1.2.2 (732a01da63, 2022-12-09)"
   id="svg8"
   version="1.1"
   viewBox="0 0 100 100"
   height="100mm"
   width="100mm"
   inkscape:export-filename="nsis_un_icon.png"
   inkscape:export-xdpi="130.048"
   inkscape:export-ydpi="130.048"
   xmlns:inkscape="http://www.inkscape.org/namespaces/inkscape"
   xmlns:sodipodi="http://sodipodi.sourceforge.net/DTD/sodipodi-0.dtd"
   xmlns="http://www.w3.org/2000/svg"
   xmlns:svg="http://www.w3.org/2000/svg"
   xmlns:rdf="http://www.w3.org/1999/02/22-rdf-syntax-ns#"
   xmlns:cc="http://creativecommons.org/ns#"
   xmlns:dc="http://purl.org/dc/elements/1.1/">
  <defs
     id="defs2" />
  <sodipodi:namedview
     inkscape:guide-bbox="true"
     showguides="true"
     inkscape:window-maximized="1"
     inkscape:window-y="-8"
     inkscape:window-x="-8"
     inkscape:window-height="1017"
     inkscape:window-width="1920"
     showgrid="false"
     inkscape:document-rotation="0"
     inkscape:current-layer="layer1"
     inkscape:document-units="mm"
     inkscape:cy="238.396"
     inkscape:cx="173.24116"
     inkscape:zoom="0.98994949"
     inkscape:pageshadow="2"
     inkscape:pageopacity="0"
     borderopacity="1.0"
     bordercolor="#666666"
     pagecolor="#000000"
     id="base"
     inkscape:showpageshadow="2"
     inkscape:pagecheckerboard="0"
     inkscape:deskcolor="#d1d1d1" />
  <metadata
     id="metadata5">
    <rdf:RDF>
      <cc:Work
         rdf:about="">
        <dc:format>image/svg+xml</dc:format>
        <dc:type
           rdf:resource="http://purl.org/dc/dcmitype/StillImage" />
      </cc:Work>
    </rdf:RDF>
  </metadata>
  <g
     id="layer1"
     inkscape:groupmode="layer"
     inkscape:label="Layer 1">
    <g
       id="g863"
       transform="matrix(0.15873016,0,0,0.15873016,-8.0000001e-7,1.5073486e-6)">
      <g
         id="logo">
        <rect
           id="background"
           x="0"
           y="0"
           width="630"
           height="630"
           fill="#f7df1e"
           rx="50"
           ry="50" />
      </g>
      <g
         aria-label="JSL"
         id="text848"
         style="font-size:341.94px;line-height:1.05;font-family:'Neutra Text';-inkscape-font-specification:'Neutra Text';word-spacing:0px;fill:#000000;fill-opacity:1;stroke-width:8.54852">
        <path
           d="m 132.3099,593 c 42.69727,0 71.96556,-22.72597 71.96556,-72.65424 v -164.5911 h -48.2066 v 163.90243 c 0,24.1033 -9.98565,30.30129 -25.82496,30.30129 -16.52798,0 -23.41463,-11.36298 -30.989963,-24.79196 L 60,548.92539 C 71.362984,573.0287 93.744617,593 132.3099,593 Z"
           style="stroke-width:8.60834"
           id="path850" />
        <path
           d="m 318.24908,593 c 45.79626,0 79.88522,-23.75897 79.88522,-67.14491 0,-40.28695 -23.0703,-58.19225 -64.04591,-75.75323 l -12.05165,-5.16499 c -20.65997,-8.95266 -29.61263,-14.80631 -29.61263,-29.26829 0,-11.70732 8.95266,-20.65997 23.0703,-20.65997 13.77332,0 22.72597,5.85365 30.98996,20.65997 l 37.53228,-24.1033 C 368.17734,363.67432 346.14004,353 315.49441,353 c -43.0416,0 -70.58823,27.54663 -70.58823,63.70158 0,39.25394 23.0703,57.84791 57.84792,72.65422 l 12.05165,5.165 c 22.0373,9.64132 35.12195,15.49498 35.12195,32.02295 0,13.77332 -12.74032,23.75897 -32.71162,23.75897 -23.75897,0 -37.18795,-12.39598 -47.51793,-29.26829 L 230.4442,543.76039 C 244.56185,571.65136 273.48581,593 318.24908,593 Z"
           style="stroke-width:8.60834"
           id="path852" />
        <path
           d="M 435.66613,589.901 H 589.92724 V 547.54805 H 483.87273 V 355.75466 h -48.2066 z"
           style="stroke-width:8.60834"
           id="path854" />
      </g>
    </g>
    <g
       style="font-style:normal;font-variant:normal;font-weight:normal;font-stretch:normal;font-size:65.0608px;line-height:1.25;font-family:arial;-inkscape-font-specification:arial;letter-spacing:0px;word-spacing:0px;fill:#ffffff;fill-opacity:1;stroke:none;stroke-width:0.243977"
       id="text837-2"
       aria-label="p" />
    <g
       aria-label="P"
       id="text899"
       style="font-style:normal;font-variant:normal;font-weight:normal;font-stretch:normal;font-size:77.6111px;line-height:1.25;font-family:arial;-inkscape-font-specification:arial;letter-spacing:0px;word-spacing:0px;fill:#000000;fill-opacity:1;stroke:none;stroke-width:0.264583"
       transform="translate(-1.5119048,1.1339286)" />
    <g
       aria-label="C"
       id="text899-1"
       style="font-style:normal;font-variant:normal;font-weight:normal;font-stretch:normal;font-size:77.611px;line-height:1.25;font-family:arial;-inkscape-font-specification:arial;letter-spacing:0px;word-spacing:0px;fill:#000000;fill-opacity:1;stroke:none;stroke-width:0.264583"
       transform="translate(-1.5119048,1.1339286)" />
    <g
       aria-label=" "
       id="text867"
       style="font-style:normal;font-variant:normal;font-weight:normal;font-stretch:normal;font-size:10.5833px;line-height:1.25;font-family:arial;-inkscape-font-specification:arial;letter-spacing:0px;word-spacing:0px;fill:#000000;fill-opacity:1;stroke:none;stroke-width:0.264583" />
    <g
       aria-label=" "
       id="text887"
       style="font-style:normal;font-variant:normal;font-weight:normal;font-stretch:normal;font-size:10.5833px;line-height:1.25;font-family:arial;-inkscape-font-specification:arial;letter-spacing:0px;word-spacing:0px;fill:#000000;fill-opacity:1;stroke:none;stroke-width:0.264583" />
    <g
       style="font-style:normal;font-variant:normal;font-weight:normal;font-stretch:normal;font-size:77.6111px;line-height:1.25;font-family:arial;-inkscape-font-specification:arial;letter-spacing:0px;word-spacing:0px;fill:#ffffff;fill-opacity:1;stroke:none;stroke-width:0.264583"
       id="text899-5"
       aria-label="P"
       transform="translate(-5.4641883,103.46329)" />
    <g
       style="font-style:normal;font-variant:normal;font-weight:normal;font-stretch:normal;font-size:77.611px;line-height:1.25;font-family:arial;-inkscape-font-specification:arial;letter-spacing:0px;word-spacing:0px;fill:#ffffff;fill-opacity:1;stroke:none;stroke-width:0.264583"
       id="text899-1-0"
       aria-label="C"
       transform="translate(-5.4641883,103.46329)" />
    <g
       style="font-style:normal;font-variant:normal;font-weight:normal;font-stretch:normal;font-size:63.5px;line-height:1.25;font-family:arial;-inkscape-font-specification:arial;letter-spacing:0px;word-spacing:0px;fill:#000000;fill-opacity:1;stroke:none;stroke-width:0.264583"
       id="text897"
       aria-label="P" />
    <g
       aria-label="C"
       id="text851"
       style="font-style:normal;font-variant:normal;font-weight:normal;font-stretch:normal;font-size:63.5px;line-height:1.25;font-family:arial;-inkscape-font-specification:arial;letter-spacing:0px;word-spacing:0px;fill:#000000;fill-opacity:1;stroke:none;stroke-width:0.264583" />
    <g
       style="font-style:normal;font-variant:normal;font-weight:normal;font-stretch:normal;font-size:77.6111px;line-height:1.25;font-family:arial;-inkscape-font-specification:arial;letter-spacing:0px;word-spacing:0px;fill:#000000;fill-opacity:1;stroke:none;stroke-width:0.264583"
       id="text853"
       aria-label="P" />
    <g
       transform="translate(-1.0235496,101.87881)"
       aria-label="P"
       id="text897-7"
       style="font-style:normal;font-variant:normal;font-weight:normal;font-stretch:normal;font-size:63.5px;line-height:1.25;font-family:arial;-inkscape-font-specification:arial;letter-spacing:0px;word-spacing:0px;fill:#ffffff;fill-opacity:1;stroke:none;stroke-width:0.264583" />
    <g
       style="font-style:normal;font-variant:normal;font-weight:normal;font-stretch:normal;font-size:63.5px;line-height:1.25;font-family:arial;-inkscape-font-specification:arial;letter-spacing:0px;word-spacing:0px;fill:#ffffff;fill-opacity:1;stroke:none;stroke-width:0.264583"
       id="text851-7"
       aria-label="C"
       transform="translate(-4.0069031,102.90684)" />
    <g
       aria-label="P R"
       id="text854"
       style="font-style:normal;font-variant:normal;font-weight:normal;font-stretch:normal;font-size:42.3333px;line-height:1.25;font-family:arial;-inkscape-font-specification:arial;letter-spacing:0px;word-spacing:0px;fill:#000000;fill-opacity:1;stroke:none;stroke-width:1.3;stroke-miterlimit:4;stroke-dasharray:none;stroke-opacity:1" />
    <g
       aria-label="D C"
       id="text858"
       style="font-style:normal;font-variant:normal;font-weight:normal;font-stretch:normal;font-size:42.3333px;line-height:1.25;font-family:arial;-inkscape-font-specification:arial;letter-spacing:0px;word-spacing:0px;fill:#ffffff;fill-opacity:1;stroke:none;stroke-width:1.3;stroke-miterlimit:4;stroke-dasharray:none;stroke-opacity:1" />
    <circle
       style="fill:#cccccc;fill-opacity:1;stroke-width:0.206031;stroke-miterlimit:3.7;paint-order:stroke markers fill"
       id="path864"
       cx="80.736511"
       cy="19.517031"
       r="16.920507" />
    <path
       style="fill:#ffffff;fill-opacity:1;stroke-width:0.0503905"
       d="m 79.653923,32.11743 c -3.108668,-0.300902 -5.997564,-1.697178 -8.142441,-3.935581 -4.768161,-4.975944 -4.768161,-12.848689 0,-17.824636 1.656068,-1.7282536 3.871851,-3.0239896 6.119959,-3.5788026 2.481035,-0.6122687 4.84512,-0.5318317 7.21073,0.245224 3.570866,1.173242 6.427859,3.8106006 7.878358,7.2727156 1.630003,3.890564 1.222694,8.460966 -1.067394,11.977293 -2.048288,3.145065 -5.25832,5.194751 -9.033041,5.767851 -0.635299,0.09635 -2.310207,0.139394 -2.966171,0.07582 z m -0.964285,-6.977417 2.141157,-2.141584 2.15439,2.153982 2.154393,2.153939 1.864486,-1.864018 1.864485,-1.863932 -2.153995,-2.154455 -2.153987,-2.154375 2.153987,-2.154453 2.153995,-2.154413 -1.86456,-1.864054 -1.864557,-1.864055 -2.153955,2.153939 -2.153955,2.15398 -2.154319,-2.153901 -2.154319,-2.15386 -1.864481,1.863976 -1.864484,1.863975 2.15399,2.154413 2.153991,2.154453 -2.156522,2.156939 -2.156522,2.156946 1.854399,1.848295 c 1.019917,1.016555 1.86584,1.848614 1.879815,1.849092 0.01382,4.3e-4 0.988938,-0.962968 2.166568,-2.140829 z"
       id="path1416"
       inkscape:connector-curvature="0" />
  </g>
</svg>
