<?xml version="1.0" encoding="UTF-8" standalone="no"?>
<svg
   width="595.276001pt"
   height="841.890015pt"
   viewBox="0 0 595.276001 841.890015"
   version="1.1"
   id="svg24"
   sodipodi:docname="hello_world1.pdf"
   xmlns:inkscape="http://www.inkscape.org/namespaces/inkscape"
   xmlns:sodipodi="http://sodipodi.sourceforge.net/DTD/sodipodi-0.dtd"
   xmlns="http://www.w3.org/2000/svg"
   xmlns:svg="http://www.w3.org/2000/svg">
  <defs
     id="defs28" />
  <sodipodi:namedview
     id="namedview26"
     pagecolor="#ffffff"
     bordercolor="#666666"
     borderopacity="1.0"
     inkscape:showpageshadow="2"
     inkscape:pageopacity="0.0"
     inkscape:pagecheckerboard="0"
     inkscape:deskcolor="#d1d1d1"
     inkscape:document-units="pt" />
  <path
     fill-rule="nonzero"
     fill="rgb(0%, 0%, 0%)"
     fill-opacity="1"
     d="M 154.820313 128.734375 C 154.820313 128.375 154.835938 128.265625 155.601563 128.265625 L 155.851563 128.265625 L 155.851563 127.953125 C 155.492188 127.984375 154.757813 127.984375 154.382813 127.984375 C 154.007813 127.984375 153.257813 127.984375 152.914063 127.953125 L 152.914063 128.265625 L 153.148438 128.265625 C 153.914063 128.265625 153.929688 128.375 153.929688 128.734375 L 153.929688 131.0625 L 150.960938 131.0625 L 150.960938 128.734375 C 150.960938 128.375 150.976563 128.265625 151.742188 128.265625 L 151.976563 128.265625 L 151.976563 127.953125 C 151.632813 127.984375 150.898438 127.984375 150.507813 127.984375 C 150.132813 127.984375 149.382813 127.984375 149.039063 127.953125 L 149.039063 128.265625 L 149.273438 128.265625 C 150.039063 128.265625 150.070313 128.375 150.070313 128.734375 L 150.070313 133.984375 C 150.070313 134.34375 150.039063 134.453125 149.273438 134.453125 L 149.039063 134.453125 L 149.039063 134.765625 C 149.382813 134.734375 150.132813 134.734375 150.507813 134.734375 C 150.882813 134.734375 151.632813 134.734375 151.976563 134.765625 L 151.976563 134.453125 L 151.742188 134.453125 C 150.976563 134.453125 150.960938 134.34375 150.960938 133.984375 L 150.960938 131.375 L 153.929688 131.375 L 153.929688 133.984375 C 153.929688 134.34375 153.914063 134.453125 153.148438 134.453125 L 152.914063 134.453125 L 152.914063 134.765625 C 153.257813 134.734375 153.992188 134.734375 154.367188 134.734375 C 154.757813 134.734375 155.492188 134.734375 155.851563 134.765625 L 155.851563 134.453125 L 155.601563 134.453125 C 154.835938 134.453125 154.820313 134.34375 154.820313 133.984375 Z M 154.820313 128.734375 "
     id="path2" />
  <path
     fill-rule="nonzero"
     fill="rgb(0%, 0%, 0%)"
     fill-opacity="1"
     d="M 157.292969 132.25 C 157.355469 130.765625 158.199219 130.515625 158.542969 130.515625 C 159.558594 130.515625 159.667969 131.859375 159.667969 132.25 Z M 157.292969 132.46875 L 160.074219 132.46875 C 160.292969 132.46875 160.324219 132.46875 160.324219 132.25 C 160.324219 131.265625 159.777344 130.296875 158.542969 130.296875 C 157.386719 130.296875 156.464844 131.328125 156.464844 132.578125 C 156.464844 133.90625 157.511719 134.875 158.652344 134.875 C 159.871094 134.875 160.324219 133.765625 160.324219 133.578125 C 160.324219 133.484375 160.246094 133.453125 160.183594 133.453125 C 160.105469 133.453125 160.074219 133.515625 160.058594 133.59375 C 159.714844 134.625 158.808594 134.625 158.714844 134.625 C 158.214844 134.625 157.824219 134.328125 157.589844 133.953125 C 157.292969 133.484375 157.292969 132.828125 157.292969 132.46875 Z M 157.292969 132.46875 "
     id="path4" />
  <path
     fill-rule="nonzero"
     fill="rgb(0%, 0%, 0%)"
     fill-opacity="1"
     d="M 162.375 127.84375 L 160.9375 127.953125 L 160.9375 128.265625 C 161.640625 128.265625 161.71875 128.328125 161.71875 128.828125 L 161.71875 134.015625 C 161.71875 134.453125 161.609375 134.453125 160.9375 134.453125 L 160.9375 134.765625 C 161.265625 134.75 161.796875 134.734375 162.046875 134.734375 C 162.296875 134.734375 162.78125 134.75 163.15625 134.765625 L 163.15625 134.453125 C 162.484375 134.453125 162.375 134.453125 162.375 134.015625 Z M 162.375 127.84375 "
     id="path6" />
  <path
     fill-rule="nonzero"
     fill="rgb(0%, 0%, 0%)"
     fill-opacity="1"
     d="M 165.144531 127.84375 L 163.707031 127.953125 L 163.707031 128.265625 C 164.410156 128.265625 164.488281 128.328125 164.488281 128.828125 L 164.488281 134.015625 C 164.488281 134.453125 164.378906 134.453125 163.707031 134.453125 L 163.707031 134.765625 C 164.035156 134.75 164.566406 134.734375 164.816406 134.734375 C 165.066406 134.734375 165.550781 134.75 165.925781 134.765625 L 165.925781 134.453125 C 165.253906 134.453125 165.144531 134.453125 165.144531 134.015625 Z M 165.144531 127.84375 "
     id="path8" />
  <path
     fill-rule="nonzero"
     fill="rgb(0%, 0%, 0%)"
     fill-opacity="1"
     d="M 170.835938 132.625 C 170.835938 131.359375 169.851563 130.296875 168.648438 130.296875 C 167.398438 130.296875 166.429688 131.390625 166.429688 132.625 C 166.429688 133.921875 167.460938 134.875 168.632813 134.875 C 169.835938 134.875 170.835938 133.890625 170.835938 132.625 Z M 168.648438 134.625 C 168.210938 134.625 167.773438 134.421875 167.507813 133.953125 C 167.257813 133.515625 167.257813 132.90625 167.257813 132.546875 C 167.257813 132.15625 167.257813 131.625 167.492188 131.1875 C 167.757813 130.734375 168.226563 130.515625 168.632813 130.515625 C 169.070313 130.515625 169.492188 130.734375 169.757813 131.171875 C 170.023438 131.59375 170.023438 132.171875 170.023438 132.546875 C 170.023438 132.90625 170.023438 133.453125 169.804688 133.890625 C 169.570313 134.34375 169.132813 134.625 168.648438 134.625 Z M 168.648438 134.625 "
     id="path10" />
  <path
     fill-rule="nonzero"
     fill="rgb(0%, 0%, 0%)"
     fill-opacity="1"
     d="M 183.507813 128.9375 C 183.679688 128.359375 184.117188 128.265625 184.507813 128.265625 L 184.507813 127.953125 C 184.210938 127.984375 183.898438 127.984375 183.601563 127.984375 C 183.304688 127.984375 182.664063 127.96875 182.414063 127.953125 L 182.414063 128.265625 C 183.085938 128.28125 183.273438 128.609375 183.273438 128.796875 C 183.273438 128.859375 183.242188 128.9375 183.226563 129 L 181.726563 133.59375 L 180.132813 128.71875 C 180.132813 128.671875 180.101563 128.609375 180.101563 128.5625 C 180.101563 128.265625 180.679688 128.265625 180.945313 128.265625 L 180.945313 127.953125 C 180.585938 127.984375 179.914063 127.984375 179.523438 127.984375 C 179.148438 127.984375 178.726563 127.96875 178.320313 127.953125 L 178.320313 128.265625 C 178.882813 128.265625 179.085938 128.265625 179.210938 128.625 L 179.429688 129.328125 L 178.039063 133.59375 L 176.445313 128.6875 C 176.429688 128.671875 176.414063 128.59375 176.414063 128.5625 C 176.414063 128.265625 176.992188 128.265625 177.257813 128.265625 L 177.257813 127.953125 C 176.898438 127.984375 176.226563 127.984375 175.835938 127.984375 C 175.460938 127.984375 175.039063 127.96875 174.617188 127.953125 L 174.617188 128.265625 C 175.367188 128.265625 175.414063 128.3125 175.539063 128.6875 L 177.523438 134.796875 C 177.554688 134.890625 177.585938 134.984375 177.710938 134.984375 C 177.851563 134.984375 177.867188 134.921875 177.914063 134.78125 L 179.554688 129.71875 L 181.210938 134.796875 C 181.242188 134.890625 181.273438 134.984375 181.398438 134.984375 C 181.539063 134.984375 181.570313 134.921875 181.601563 134.78125 Z M 183.507813 128.9375 "
     id="path12" />
  <path
     fill-rule="nonzero"
     fill="rgb(0%, 0%, 0%)"
     fill-opacity="1"
     d="M 188.546875 132.625 C 188.546875 131.359375 187.5625 130.296875 186.359375 130.296875 C 185.109375 130.296875 184.140625 131.390625 184.140625 132.625 C 184.140625 133.921875 185.171875 134.875 186.34375 134.875 C 187.546875 134.875 188.546875 133.890625 188.546875 132.625 Z M 186.359375 134.625 C 185.921875 134.625 185.484375 134.421875 185.21875 133.953125 C 184.96875 133.515625 184.96875 132.90625 184.96875 132.546875 C 184.96875 132.15625 184.96875 131.625 185.203125 131.1875 C 185.46875 130.734375 185.9375 130.515625 186.34375 130.515625 C 186.78125 130.515625 187.203125 130.734375 187.46875 131.171875 C 187.734375 131.59375 187.734375 132.171875 187.734375 132.546875 C 187.734375 132.90625 187.734375 133.453125 187.515625 133.890625 C 187.28125 134.34375 186.84375 134.625 186.359375 134.625 Z M 186.359375 134.625 "
     id="path14" />
  <path
     fill-rule="nonzero"
     fill="rgb(0%, 0%, 0%)"
     fill-opacity="1"
     d="M 190.511719 131.453125 L 190.511719 130.359375 L 189.121094 130.46875 L 189.121094 130.78125 C 189.824219 130.78125 189.902344 130.84375 189.902344 131.34375 L 189.902344 134.015625 C 189.902344 134.453125 189.792969 134.453125 189.121094 134.453125 L 189.121094 134.765625 C 189.511719 134.75 189.980469 134.734375 190.261719 134.734375 C 190.652344 134.734375 191.121094 134.734375 191.527344 134.765625 L 191.527344 134.453125 L 191.308594 134.453125 C 190.574219 134.453125 190.558594 134.34375 190.558594 133.984375 L 190.558594 132.453125 C 190.558594 131.46875 190.980469 130.578125 191.730469 130.578125 C 191.792969 130.578125 191.824219 130.578125 191.839844 130.59375 C 191.808594 130.59375 191.605469 130.71875 191.605469 130.984375 C 191.605469 131.25 191.824219 131.40625 192.042969 131.40625 C 192.214844 131.40625 192.464844 131.28125 192.464844 130.96875 C 192.464844 130.65625 192.152344 130.359375 191.730469 130.359375 C 190.996094 130.359375 190.636719 131.03125 190.511719 131.453125 Z M 190.511719 131.453125 "
     id="path16" />
  <path
     fill-rule="nonzero"
     fill="rgb(0%, 0%, 0%)"
     fill-opacity="1"
     d="M 194.507813 127.84375 L 193.070313 127.953125 L 193.070313 128.265625 C 193.773438 128.265625 193.851563 128.328125 193.851563 128.828125 L 193.851563 134.015625 C 193.851563 134.453125 193.742188 134.453125 193.070313 134.453125 L 193.070313 134.765625 C 193.398438 134.75 193.929688 134.734375 194.179688 134.734375 C 194.429688 134.734375 194.914063 134.75 195.289063 134.765625 L 195.289063 134.453125 C 194.617188 134.453125 194.507813 134.453125 194.507813 134.015625 Z M 194.507813 127.84375 "
     id="path18" />
  <path
     fill-rule="nonzero"
     fill="rgb(0%, 0%, 0%)"
     fill-opacity="1"
     d="M 199.289063 134.21875 L 199.289063 134.875 L 200.757813 134.765625 L 200.757813 134.453125 C 200.070313 134.453125 199.976563 134.390625 199.976563 133.890625 L 199.976563 127.84375 L 198.554688 127.953125 L 198.554688 128.265625 C 199.242188 128.265625 199.320313 128.328125 199.320313 128.828125 L 199.320313 130.984375 C 199.039063 130.625 198.601563 130.359375 198.070313 130.359375 C 196.898438 130.359375 195.851563 131.34375 195.851563 132.625 C 195.851563 133.890625 196.820313 134.875 197.960938 134.875 C 198.601563 134.875 199.039063 134.53125 199.289063 134.21875 Z M 199.289063 131.546875 L 199.289063 133.59375 C 199.289063 133.765625 199.289063 133.78125 199.179688 133.953125 C 198.882813 134.4375 198.445313 134.65625 198.007813 134.65625 C 197.554688 134.65625 197.195313 134.390625 196.960938 134.015625 C 196.710938 133.609375 196.679688 133.046875 196.679688 132.625 C 196.679688 132.265625 196.695313 131.671875 196.976563 131.21875 C 197.195313 130.90625 197.570313 130.578125 198.117188 130.578125 C 198.460938 130.578125 198.882813 130.734375 199.179688 131.171875 C 199.289063 131.34375 199.289063 131.359375 199.289063 131.546875 Z M 199.289063 131.546875 "
     id="path20" />
  <path
     fill-rule="nonzero"
     fill="rgb(0%, 0%, 0%)"
     fill-opacity="1"
     d="M 306.070313 696.261719 C 306.070313 696.011719 306.070313 695.996094 305.835938 695.996094 C 305.210938 696.636719 304.335938 696.636719 304.023438 696.636719 L 304.023438 696.949219 C 304.226563 696.949219 304.804688 696.949219 305.320313 696.683594 L 305.320313 701.855469 C 305.320313 702.214844 305.289063 702.324219 304.398438 702.324219 L 304.085938 702.324219 L 304.085938 702.636719 C 304.429688 702.605469 305.289063 702.605469 305.695313 702.605469 C 306.085938 702.605469 306.960938 702.605469 307.304688 702.636719 L 307.304688 702.324219 L 306.992188 702.324219 C 306.085938 702.324219 306.070313 702.214844 306.070313 701.855469 Z M 306.070313 696.261719 "
     id="path22" />
</svg>
