<?xml version="1.0" encoding="UTF-8" standalone="no"?>
<!-- Created with Inkscape (http://www.inkscape.org/) -->

<svg
   version="1.1"
   id="svg32538"
   width="100"
   height="100"
   viewBox="0 0 100 100"
   sodipodi:docname="autoscale.svg"
   inkscape:export-filename="Screenshot 2022-11-26 155112.svg"
   inkscape:export-xdpi="96"
   inkscape:export-ydpi="96"
   inkscape:version="1.2.2 (732a01da63, 2022-12-09)"
   xmlns:inkscape="http://www.inkscape.org/namespaces/inkscape"
   xmlns:sodipodi="http://sodipodi.sourceforge.net/DTD/sodipodi-0.dtd"
   xmlns="http://www.w3.org/2000/svg"
   xmlns:svg="http://www.w3.org/2000/svg">
  <defs
     id="defs32542" />
  <sodipodi:namedview
     id="namedview32540"
     pagecolor="#ffffff"
     bordercolor="#999999"
     borderopacity="1"
     inkscape:showpageshadow="0"
     inkscape:pageopacity="0"
     inkscape:pagecheckerboard="0"
     inkscape:deskcolor="#d1d1d1"
     showgrid="false"
     inkscape:zoom="3.4456992"
     inkscape:cx="-24.813541"
     inkscape:cy="39.75971"
     inkscape:window-width="1920"
     inkscape:window-height="1017"
     inkscape:window-x="-8"
     inkscape:window-y="-8"
     inkscape:window-maximized="1"
     inkscape:current-layer="g32544" />
  <g
     inkscape:groupmode="layer"
     inkscape:label="Image"
     id="g32544"
     transform="translate(-9.9999952,-10)">
    <path
       style="fill:#cccccc;fill-opacity:1;stroke-width:0.131889"
       d="m 95.212056,96.997927 c -0.3188,0.195683 -0.903625,0.32691 -1.751749,0.393049 -3.916379,0.305415 -19.629141,0.402295 -21.021841,0.129611 l -0.915811,-0.17931 -0.99133,-0.99133 c -0.904219,-0.904218 -1.011919,-1.057371 -1.224539,-1.743797 -0.297187,-0.9589 -0.296773,-2.015861 0.0012,-2.970174 0.207927,-0.666051 0.334578,-0.851461 1.118988,-1.638324 0.748404,-0.750767 0.982744,-0.918183 1.522866,-1.088197 1.07329,-0.337795 2.284579,-0.439707 5.903543,-0.496722 1.910743,-0.0301 3.472585,-0.123001 3.470756,-0.206437 -0.0018,-0.08342 -2.942273,-3.151492 -6.534303,-6.817909 l -6.530965,-6.66621 3.297441,-3.297441 3.297439,-3.29744 6.423095,6.401019 c 3.532872,3.520392 6.576992,6.498938 6.76505,6.618656 0.341199,0.217121 0.342091,0.210405 0.384698,-2.935516 0.04446,-3.281437 0.210362,-5.310105 0.516818,-6.319641 0.149159,-0.491359 0.330422,-0.742879 1.065382,-1.478249 0.750346,-0.750719 0.991723,-0.922558 1.57985,-1.124465 0.988973,-0.339494 2.478469,-0.292325 3.353351,0.106187 0.945369,0.430624 2.153609,1.619606 2.44516,2.406421 0.322469,0.869779 0.395406,3.066307 0.347142,10.454079 -0.0634,9.704355 -0.14287,11.501117 -0.548048,12.390859 -0.386039,0.847731 -1.302172,1.938843 -1.974276,2.351405 z M 49.440282,96.893422 c -0.75318,0.500201 -1.086528,0.598391 -2.35334,0.693151 -3.179084,0.237807 -16.197426,0.130003 -20.111003,-0.166545 -1.739956,-0.131841 -2.429195,-0.436822 -3.347761,-1.481357 -0.768564,-0.873957 -0.930609,-1.410847 -1.03685,-3.435577 -0.156422,-2.980756 -0.326982,-11.042422 -0.328839,-15.542827 -0.0024,-5.669892 0.0226,-5.788704 1.531906,-7.298014 0.834756,-0.834756 1.075487,-1.011887 1.632346,-1.201188 0.913364,-0.310455 2.045385,-0.294919 2.950207,0.04049 0.662036,0.245393 0.900472,0.415225 1.705611,1.214628 1.416486,1.406535 1.383648,1.2156 1.558209,9.047571 0.03099,1.390685 0.116967,2.54283 0.191034,2.560321 0.07689,0.01816 2.971746,-2.8053 6.750063,-6.583619 l 6.615405,-6.615403 3.310952,3.310952 3.310954,3.310955 -2.036215,2.036215 c -4.13011,4.13011 -11.177341,11.429507 -11.08,11.476443 0.05514,0.02668 1.724696,0.09576 3.709926,0.153606 4.195396,0.122252 5.24454,0.228774 6.428146,0.652668 0.733807,0.262818 0.938985,0.397093 1.352881,0.88551 1.439678,1.698846 1.587248,4.042186 0.365943,5.81116 -0.499602,0.723609 -0.486445,0.710337 -1.119563,1.130862 z M 95.750948,50.580055 c -1.270669,0.838325 -3.133385,1.013552 -4.460364,0.419607 -0.917719,-0.410775 -1.950982,-1.395725 -2.26414,-2.158343 -0.295737,-0.720129 -0.439222,-2.283515 -0.543052,-5.917109 -0.09595,-3.357795 -0.15225,-4.297798 -0.257255,-4.295401 -0.03642,7.68e-4 -3.108368,2.981508 -6.826114,6.623695 L 74.640524,51.8747 71.342315,48.576492 68.044104,45.278281 74.706136,38.61625 c 3.897566,-3.897566 6.648604,-6.71895 6.629627,-6.79924 -0.01783,-0.07548 -1.644868,-0.1758 -3.615662,-0.222965 -6.696172,-0.160254 -6.616965,-0.142882 -8.13864,-1.785119 -1.161945,-1.253997 -1.355819,-1.732682 -1.290589,-3.186178 0.0696,-1.550508 1.044572,-2.983247 2.639917,-3.879404 0.647062,-0.363512 0.932534,-0.404823 3.26898,-0.473346 4.477133,-0.131304 18.393353,0.08947 19.653447,0.311772 1.509104,0.266253 2.901656,1.509561 3.430768,3.06305 0.354809,1.041773 0.504673,5.624311 0.454955,13.911503 -0.04074,6.790049 -0.144757,8.740204 -0.498244,9.341395 -0.423107,0.719585 -0.974802,1.342624 -1.489699,1.682323 z M 42.972973,49.488385 C 39.259638,45.77505 31.833592,38.586291 31.773311,38.646571 c -0.03041,0.03041 -0.09004,1.740508 -0.132546,3.800255 -0.08902,4.314394 -0.182157,5.578326 -0.466958,6.337432 -0.267949,0.714191 -1.642934,2.117538 -2.476066,2.527202 -0.797336,0.392008 -2.165103,0.439895 -3.132471,0.109645 -0.72263,-0.246681 -0.884056,-0.361775 -1.818928,-1.296647 -0.82832,-0.828319 -1.054897,-1.122713 -1.176253,-1.52847 -0.241517,-0.807372 -0.308173,-5.597769 -0.179256,-12.882362 0.184288,-10.413397 0.188075,-10.445493 1.392771,-11.798257 1.244674,-1.397695 2.07561,-1.535344 10.043326,-1.663987 7.800208,-0.125945 13.806038,0.04668 14.847554,0.42674 0.939089,0.342696 2.018675,1.465187 2.393674,2.488847 0.746348,2.037236 0.09756,4.283767 -1.568024,5.429568 -0.349508,0.240455 -0.796728,0.487437 -0.993792,0.548891 -0.568759,0.177379 -2.973123,0.341334 -6.501959,0.443391 -1.795057,0.05191 -3.27796,0.154652 -3.295344,0.228306 -0.01789,0.07593 2.833812,2.99933 6.584798,6.750315 l 6.6164,6.6164 -3.310454,3.310454 -3.310453,3.310453 z"
       id="path32665" />
  </g>
</svg>
