<?xml version="1.0" encoding="UTF-8" standalone="no"?>
<svg
   width="256"
   height="256"
   viewBox="0 0 67.733331 67.733331"
   version="1.1"
   id="svg8"
   inkscape:version="1.1 (c68e22c387, 2021-05-23)"
   sodipodi:docname="browser-file-jsl.svg"
   xmlns:inkscape="http://www.inkscape.org/namespaces/inkscape"
   xmlns:sodipodi="http://sodipodi.sourceforge.net/DTD/sodipodi-0.dtd"
   xmlns="http://www.w3.org/2000/svg"
   xmlns:svg="http://www.w3.org/2000/svg"
   xmlns:rdf="http://www.w3.org/1999/02/22-rdf-syntax-ns#"
   xmlns:cc="http://creativecommons.org/ns#"
   xmlns:dc="http://purl.org/dc/elements/1.1/">
  <defs
     id="defs2">
    <style
       id="style883">.cls-1{fill:#101820;}</style>
    <style
       id="style904">.cls-1{fill:#101820;}</style>
    <style
       id="style1419">.cls-1{fill:#101820;}</style>
  </defs>
  <sodipodi:namedview
     id="base"
     pagecolor="#ffffff"
     bordercolor="#666666"
     borderopacity="1.0"
     inkscape:pageopacity="0"
     inkscape:pageshadow="2"
     inkscape:zoom="0.7"
     inkscape:cx="97.857143"
     inkscape:cy="550.71429"
     inkscape:document-units="mm"
     inkscape:current-layer="layer1"
     inkscape:document-rotation="0"
     showgrid="false"
     units="px"
     inkscape:window-width="1080"
     inkscape:window-height="1857"
     inkscape:window-x="-8"
     inkscape:window-y="-8"
     inkscape:window-maximized="1"
     inkscape:pagecheckerboard="1" />
  <metadata
     id="metadata5">
    <rdf:RDF>
      <cc:Work
         rdf:about="">
        <dc:format>image/svg+xml</dc:format>
        <dc:type
           rdf:resource="http://purl.org/dc/dcmitype/StillImage" />
      </cc:Work>
    </rdf:RDF>
  </metadata>
  <g
     inkscape:label="Layer 1"
     inkscape:groupmode="layer"
     id="layer1">
    <g
       style="fill:none;fill-opacity:1;stroke:#666666;stroke-width:2;stroke-linecap:round;stroke-linejoin:round;stroke-opacity:1"
       id="g837"
       transform="matrix(2.8760552,0,0,2.8760552,-0.64599596,-0.64599596)">
      <path
         d="M 13,2 H 6 A 2,2 0 0 0 4,4 v 16 a 2,2 0 0 0 2,2 h 12 a 2,2 0 0 0 2,-2 V 9 Z"
         id="path825"
         style="fill:none;fill-opacity:1;stroke:#666666;stroke-opacity:1;stroke-width:1.47192353;stroke-miterlimit:4;stroke-dasharray:none" />
      <polyline
         points="13 2 13 9 20 9"
         id="polyline827"
         style="fill:none;fill-opacity:1;stroke:#666666;stroke-opacity:1;stroke-width:1.47192353;stroke-miterlimit:4;stroke-dasharray:none" />
    </g>
    <g
       aria-label="JSL"
       id="text2831"
       style="font-weight:bold;font-size:21.722px;line-height:1.05;font-family:Roboto;-inkscape-font-specification:'Roboto Bold';word-spacing:0px;fill:#666666;stroke-width:0.543049"
       transform="matrix(1.0207793,0,0,1.0207793,-0.70665478,-1.0284443)">
      <path
         d="m 22.998178,41.772252 h 3.181933 v 10.691297 q 0,1.474296 -0.657599,2.609186 -0.646994,1.124283 -1.834915,1.739457 -1.187922,0.615174 -2.683431,0.615174 -2.450089,0 -3.81832,-1.240955 -1.368232,-1.25156 -1.368232,-3.531946 h 3.203147 q 0,1.13489 0.47729,1.675819 0.47729,0.540928 1.506115,0.540928 0.912154,0 1.453083,-0.62578 0.540929,-0.62578 0.540929,-1.781883 z"
         id="path830" />
      <path
         d="m 36.913834,53.163575 q 0,-0.901548 -0.636386,-1.378838 -0.636387,-0.487897 -2.290993,-1.018219 -1.654605,-0.540929 -2.619792,-1.060645 -2.630398,-1.421263 -2.630398,-3.828926 0,-1.251561 0.700025,-2.227354 0.710632,-0.986399 2.025831,-1.537935 1.325806,-0.551535 2.969805,-0.551535 1.654606,0 2.948592,0.604568 1.293986,0.593961 2.004618,1.686424 0.721238,1.092464 0.721238,2.481909 h -3.181933 q 0,-1.060645 -0.668206,-1.643999 -0.668206,-0.593961 -1.877341,-0.593961 -1.166709,0 -1.813702,0.498503 -0.646993,0.487896 -0.646993,1.293986 0,0.753058 0.753057,1.262167 0.763664,0.509109 2.23796,0.95458 2.71525,0.816696 3.956204,2.025831 1.240954,1.209135 1.240954,3.012231 0,2.004618 -1.516721,3.150114 -1.516722,1.13489 -4.083482,1.13489 -1.781883,0 -3.245572,-0.646994 -1.46369,-0.657599 -2.23796,-1.792489 -0.763664,-1.13489 -0.763664,-2.630398 h 3.19254 q 0,2.556153 3.054656,2.556153 1.13489,0 1.771277,-0.456077 0.636386,-0.466684 0.636386,-1.293986 z"
         id="path832" />
      <path
         d="m 45.441417,54.659083 h 6.756306 v 2.556154 H 42.259484 V 41.772252 h 3.181933 z"
         id="path834" />
    </g>
  </g>
</svg>
