<?xml version="1.0" encoding="UTF-8" standalone="no"?>
<svg
   xmlns:dc="http://purl.org/dc/elements/1.1/"
   xmlns:cc="http://creativecommons.org/ns#"
   xmlns:rdf="http://www.w3.org/1999/02/22-rdf-syntax-ns#"
   xmlns:svg="http://www.w3.org/2000/svg"
   xmlns="http://www.w3.org/2000/svg"
   xmlns:sodipodi="http://sodipodi.sourceforge.net/DTD/sodipodi-0.dtd"
   xmlns:inkscape="http://www.inkscape.org/namespaces/inkscape"
   width="256"
   height="256"
   viewBox="0 0 67.733331 67.733331"
   version="1.1"
   id="svg8"
   inkscape:version="1.0.1 (3bc2e813f5, 2020-09-07)"
   sodipodi:docname="devtools.svg">
  <defs
     id="defs2" />
  <sodipodi:namedview
     id="base"
     pagecolor="#000000"
     bordercolor="#666666"
     borderopacity="1.0"
     inkscape:pageopacity="0"
     inkscape:pageshadow="2"
     inkscape:zoom="0.9899495"
     inkscape:cx="148.94169"
     inkscape:cy="315.09713"
     inkscape:document-units="mm"
     inkscape:current-layer="layer1"
     inkscape:document-rotation="0"
     showgrid="false"
     units="px"
     inkscape:window-width="1080"
     inkscape:window-height="1857"
     inkscape:window-x="-8"
     inkscape:window-y="-8"
     inkscape:window-maximized="1" />
  <metadata
     id="metadata5">
    <rdf:RDF>
      <cc:Work
         rdf:about="">
        <dc:format>image/svg+xml</dc:format>
        <dc:type
           rdf:resource="http://purl.org/dc/dcmitype/StillImage" />
        <dc:title />
      </cc:Work>
    </rdf:RDF>
  </metadata>
  <g
     inkscape:label="Layer 1"
     inkscape:groupmode="layer"
     id="layer1">
    <ellipse
       style="fill:none;stroke:#ffffff;stroke-width:2.59956;stroke-linecap:round;stroke-linejoin:round;stroke-miterlimit:4;stroke-dasharray:none;stroke-opacity:1;paint-order:stroke fill markers"
       id="path833"
       cx="33.866665"
       cy="33.866669"
       rx="32.566887"
       ry="32.566883" />
    <g
       id="g866"
       transform="matrix(0.47610332,0,0,0.47610332,11.361589,12.674955)"
       style="fill:#ffffff;fill-opacity:1">
      <g
         id="settings"
         style="fill:#ffffff;fill-opacity:1">
        <g
           id="g845"
           style="fill:#ffffff;fill-opacity:1">
          <path
             d="m 53.813,0.014 c 3.185,-0.158 6.239,1.069 9.162,3.681 l 21.199,19.191 2.273,-2.453 8.092,7.326 -12.33,13.619 -8.095,-7.38 2.012,-2.222 -21.312,-19.295 c -2.467,-2.199 -5.528,-3.208 -9.185,-3.027 -2.424,0.12 -4.755,0.69 -6.99,1.708 C 43.399,3.996 48.457,0.28 53.813,0.014 Z"
             id="path833-3"
             style="fill:#ffffff;fill-opacity:1" />
          <rect
             height="2.5369999"
             transform="matrix(-0.7413,-0.6711,0.6711,-0.7413,122.463,70.393)"
             width="13.145"
             x="68.224998"
             y="10.328"
             id="rect835"
             style="fill:#ffffff;fill-opacity:1" />
          <polygon
             points="3.583,77.775 16.005,89.021 40.694,60.545 29.478,50.429 "
             id="polygon837"
             style="fill:#ffffff;fill-opacity:1" />
          <g
             id="g843"
             style="fill:#ffffff;fill-opacity:1">
            <polygon
               points="69.689,27.088 59.888,18.215 44.013,35.055 54.548,44.556 "
               id="polygon839"
               style="fill:#ffffff;fill-opacity:1" />
            <path
               d="m 83.13,75.237 c 0.299,-1.285 0.417,-2.56 0.354,-3.827 -0.185,-3.727 -1.645,-6.83 -4.381,-9.306 -2.735,-2.476 -5.984,-3.621 -9.749,-3.434 -1.266,0.063 -2.525,0.289 -3.776,0.677 L 52.189,47.278 52.248,47.21 41.604,37.61 41.587,37.628 27.569,24.937 c 0.265,-1.246 0.365,-2.503 0.303,-3.77 -0.189,-3.8 -1.651,-6.938 -4.386,-9.415 C 20.751,9.276 17.519,8.13 13.792,8.315 12.489,8.38 11.214,8.625 9.965,9.049 L 20.792,18.851 11.199,29.504 0.37,19.703 c -0.298,1.285 -0.417,2.561 -0.354,3.827 0.185,3.728 1.645,6.83 4.381,9.306 2.735,2.476 5.967,3.622 9.694,3.436 1.376,-0.068 2.723,-0.334 4.042,-0.8 l 4.699,4.254 0.01,-0.011 30.596,27.594 -0.057,0.063 2.647,2.407 c -0.331,1.359 -0.464,2.708 -0.398,4.047 0.187,3.764 1.64,6.885 4.356,9.362 2.718,2.477 5.958,3.622 9.722,3.435 1.267,-0.063 2.525,-0.308 3.773,-0.732 L 62.654,76.089 72.301,65.433 Z"
               id="path841"
               style="fill:#ffffff;fill-opacity:1" />
          </g>
        </g>
      </g>
      <g
         id="Слой_1"
         style="fill:#ffffff;fill-opacity:1" />
    </g>
  </g>
  <style
     type="text/css"
     id="style833">
	.st0{fill:none;stroke:#000000;stroke-width:2;stroke-linecap:round;stroke-linejoin:round;stroke-miterlimit:10;}
	.st1{fill:none;stroke:#000000;stroke-width:2;stroke-linejoin:round;stroke-miterlimit:10;}
	.st2{fill:none;stroke:#000000;stroke-width:2;stroke-linecap:round;stroke-miterlimit:10;}
</style>
</svg>
