<?xml version="1.0" encoding="UTF-8" standalone="no"?>
<svg
   width="256"
   height="256"
   viewBox="0 0 67.733331 67.733331"
   version="1.1"
   id="svg8"
   inkscape:version="1.1 (c68e22c387, 2021-05-23)"
   sodipodi:docname="expand.svg"
   xmlns:inkscape="http://www.inkscape.org/namespaces/inkscape"
   xmlns:sodipodi="http://sodipodi.sourceforge.net/DTD/sodipodi-0.dtd"
   xmlns="http://www.w3.org/2000/svg"
   xmlns:svg="http://www.w3.org/2000/svg"
   xmlns:rdf="http://www.w3.org/1999/02/22-rdf-syntax-ns#"
   xmlns:cc="http://creativecommons.org/ns#"
   xmlns:dc="http://purl.org/dc/elements/1.1/">
  <defs
     id="defs2" />
  <sodipodi:namedview
     id="base"
     pagecolor="#ffffff"
     bordercolor="#666666"
     borderopacity="1.0"
     inkscape:pageopacity="0"
     inkscape:pageshadow="2"
     inkscape:zoom="0.7"
     inkscape:cx="76.428571"
     inkscape:cy="63.571429"
     inkscape:document-units="mm"
     inkscape:current-layer="layer1"
     inkscape:document-rotation="0"
     showgrid="false"
     units="px"
     inkscape:window-width="1920"
     inkscape:window-height="1017"
     inkscape:window-x="1072"
     inkscape:window-y="593"
     inkscape:window-maximized="1"
     inkscape:pagecheckerboard="1" />
  <metadata
     id="metadata5">
    <rdf:RDF>
      <cc:Work
         rdf:about="">
        <dc:format>image/svg+xml</dc:format>
        <dc:type
           rdf:resource="http://purl.org/dc/dcmitype/StillImage" />
      </cc:Work>
    </rdf:RDF>
  </metadata>
  <g
     inkscape:label="Layer 1"
     inkscape:groupmode="layer"
     id="layer1">
    <path
       id="rect846"
       style="fill:#f7df1e;fill-opacity:1;stroke:none;stroke-width:17.185;stroke-miterlimit:10;stroke-opacity:1;paint-order:stroke fill markers"
       d="M 20.296875 0 C 9.0521994 2.3684758e-15 0 9.0521994 0 20.296875 L 0 236.71094 C 2.3684758e-15 247.95561 9.0521994 257.00781 20.296875 257.00781 L 236.71094 257.00781 C 247.95561 257.00781 257.00781 247.95561 257.00781 236.71094 L 257.00781 20.296875 C 257.00781 9.0521994 247.95561 0 236.71094 0 L 20.296875 0 z M 96.359375 36.683594 L 179.98047 117.47656 A -14.635695 -14.635695 0 0 1 179.98047 138.52539 L 96.359375 219.3125 A -14.634231 -14.634231 0 0 1 85.945312 223.41797 A -14.634231 -14.634231 0 0 1 75.664062 218.95898 A -14.634231 -14.634231 0 0 1 76.025391 198.26367 L 148.74414 128.00195 L 76.025391 57.740234 A -14.634231 -14.634231 0 0 1 75.664062 37.044922 A -14.634231 -14.634231 0 0 1 96.359375 36.683594 z "
       transform="scale(0.26458333)" />
    <g
       id="g843"
       transform="matrix(-1.4280565,0,0,-1.4280565,76.646685,89.812587)"
       style="stroke:#f7df1e;stroke-opacity:1;stroke-width:0.60711884;stroke-miterlimit:4;stroke-dasharray:none;fill:none;fill-opacity:1" />
  </g>
</svg>
