<?xml version="1.0" encoding="UTF-8" standalone="no"?>
<svg
   xmlns:dc="http://purl.org/dc/elements/1.1/"
   xmlns:cc="http://creativecommons.org/ns#"
   xmlns:rdf="http://www.w3.org/1999/02/22-rdf-syntax-ns#"
   xmlns:svg="http://www.w3.org/2000/svg"
   xmlns="http://www.w3.org/2000/svg"
   xmlns:sodipodi="http://sodipodi.sourceforge.net/DTD/sodipodi-0.dtd"
   xmlns:inkscape="http://www.inkscape.org/namespaces/inkscape"
   width="256"
   height="256"
   viewBox="0 0 67.733331 67.733331"
   version="1.1"
   id="svg8"
   inkscape:version="1.0.1 (3bc2e813f5, 2020-09-07)"
   sodipodi:docname="info.svg">
  <defs
     id="defs2" />
  <sodipodi:namedview
     id="base"
     pagecolor="#000000"
     bordercolor="#666666"
     borderopacity="1.0"
     inkscape:pageopacity="0"
     inkscape:pageshadow="2"
     inkscape:zoom="0.9899495"
     inkscape:cx="185.96992"
     inkscape:cy="182.56551"
     inkscape:document-units="mm"
     inkscape:current-layer="layer1"
     inkscape:document-rotation="0"
     showgrid="false"
     units="px"
     inkscape:window-width="1080"
     inkscape:window-height="1857"
     inkscape:window-x="-8"
     inkscape:window-y="-8"
     inkscape:window-maximized="1" />
  <metadata
     id="metadata5">
    <rdf:RDF>
      <cc:Work
         rdf:about="">
        <dc:format>image/svg+xml</dc:format>
        <dc:type
           rdf:resource="http://purl.org/dc/dcmitype/StillImage" />
        <dc:title />
      </cc:Work>
    </rdf:RDF>
  </metadata>
  <g
     inkscape:label="Layer 1"
     inkscape:groupmode="layer"
     id="layer1">
    <ellipse
       style="fill:none;stroke:#ffffff;stroke-width:2.59956;stroke-linecap:round;stroke-linejoin:round;stroke-miterlimit:4;stroke-dasharray:none;stroke-opacity:1;paint-order:stroke fill markers"
       id="path833"
       cx="33.866665"
       cy="33.866669"
       rx="32.566887"
       ry="32.566883" />
    <path
       d="m 41.895094,49.023265 -0.540124,2.207968 c -1.620377,0.639559 -2.914738,1.126327 -3.87858,1.461004 -0.964881,0.335714 -2.086013,0.502706 -3.363397,0.502706 -1.961636,0 -3.487428,-0.480534 -4.57565,-1.43502 -1.088219,-0.958292 -1.632501,-2.172631 -1.632501,-3.645762 0,-0.570266 0.0395,-1.156814 0.121613,-1.754453 0.0828,-0.598327 0.214457,-1.272185 0.394613,-2.025381 l 2.025038,-7.16749 c 0.180158,-0.686328 0.333291,-1.336629 0.455937,-1.951588 0.124375,-0.611149 0.184316,-1.173446 0.184316,-1.679619 0,-0.915338 -0.189514,-1.55559 -0.566804,-1.915558 -0.37729,-0.358928 -1.097227,-0.541165 -2.166044,-0.541165 -0.523497,0 -1.061543,0.08384 -1.609983,0.245985 -0.550867,0.162832 -1.0217,0.320125 -1.417006,0.46633 l 0.54151,-2.209699 c 1.326583,-0.540125 2.594611,-1.002645 3.807555,-1.386518 1.212944,-0.384913 2.359021,-0.577542 3.443083,-0.577542 1.948124,0 3.451398,0.470833 4.507051,1.412502 1.055652,0.942361 1.583305,2.163965 1.583305,3.669319 0,0.311465 -0.03465,0.86025 -0.109128,1.644627 -0.07276,0.786109 -0.20822,1.506392 -0.405701,2.161542 l -2.016376,7.138733 c -0.165254,0.573384 -0.313888,1.228879 -0.443118,1.966485 -0.133379,0.732756 -0.197133,1.292627 -0.197133,1.668185 0,0.947906 0.211338,1.595085 0.635055,1.939121 0.426833,0.344029 1.162015,0.515179 2.206233,0.515179 0.490236,0 1.048032,-0.08696 1.667841,-0.257766 0.618424,-0.170796 1.069164,-0.320817 1.348408,-0.452125 z m 0.511717,-29.970549 c 0,1.243778 -0.468756,2.306014 -1.41077,3.179431 -0.939591,0.876534 -2.071809,1.315147 -3.396313,1.315147 -1.328659,0 -2.463649,-0.438613 -3.41398,-1.315147 -0.948597,-0.873765 -1.423934,-1.935653 -1.423934,-3.179431 0,-1.241354 0.475337,-2.305321 1.423934,-3.189823 0.948599,-0.883119 2.085667,-1.324503 3.41398,-1.324503 1.324157,0 2.456722,0.442425 3.396313,1.324503 0.94236,0.884502 1.41077,1.948817 1.41077,3.189823 z"
       id="path2"
       style="fill:#ffffff;fill-opacity:1;stroke-width:0.346455" />
  </g>
</svg>
