<?xml version="1.0" encoding="UTF-8" standalone="no"?>
<svg
   version="1.1"
   viewBox="0 0 630 630"
   xmlns:inkscape="http://www.inkscape.org/namespaces/inkscape"
   xmlns:sodipodi="http://sodipodi.sourceforge.net/DTD/sodipodi-0.dtd"
   xmlns="http://www.w3.org/2000/svg"
   xmlns:svg="http://www.w3.org/2000/svg"
   xmlns:rdf="http://www.w3.org/1999/02/22-rdf-syntax-ns#"
   xmlns:cc="http://creativecommons.org/ns#"
   xmlns:dc="http://purl.org/dc/elements/1.1/">
  <metadata
     id="metadata12">
    <rdf:RDF>
      <cc:Work
         rdf:about="">
        <dc:format>image/svg+xml</dc:format>
        <dc:type
           rdf:resource="http://purl.org/dc/dcmitype/StillImage" />
      </cc:Work>
    </rdf:RDF>
  </metadata>
  <defs
     id="defs10" />
  <rect
     id="background"
     x="0"
     y="0"
     width="630"
     height="630"
     fill="#f7df1e"
     rx="50"
     ry="50" />
  <path
     d="m 132.3099,593 c 42.69727,0 71.96556,-22.72597 71.96556,-72.65424 v -164.5911 h -48.2066 v 163.90243 c 0,24.1033 -9.98565,30.30129 -25.82496,30.30129 -16.52798,0 -23.41463,-11.36298 -30.989963,-24.79196 L 60,548.92539 C 71.362984,573.0287 93.744617,593 132.3099,593 Z"
     style="font-size:341.94px;line-height:1.05;font-family:'Neutra Text';-inkscape-font-specification:'Neutra Text';word-spacing:0px;fill:#000000;fill-opacity:1;stroke-width:8.60834"
     id="path850" />
  <path
     d="m 318.24908,593 c 45.79626,0 79.88522,-23.75897 79.88522,-67.14491 0,-40.28695 -23.0703,-58.19225 -64.04591,-75.75323 l -12.05165,-5.16499 c -20.65997,-8.95266 -29.61263,-14.80631 -29.61263,-29.26829 0,-11.70732 8.95266,-20.65997 23.0703,-20.65997 13.77332,0 22.72597,5.85365 30.98996,20.65997 l 37.53228,-24.1033 C 368.17734,363.67432 346.14004,353 315.49441,353 c -43.0416,0 -70.58823,27.54663 -70.58823,63.70158 0,39.25394 23.0703,57.84791 57.84792,72.65422 l 12.05165,5.165 c 22.0373,9.64132 35.12195,15.49498 35.12195,32.02295 0,13.77332 -12.74032,23.75897 -32.71162,23.75897 -23.75897,0 -37.18795,-12.39598 -47.51793,-29.26829 L 230.4442,543.76039 C 244.56185,571.65136 273.48581,593 318.24908,593 Z"
     style="font-size:341.94px;line-height:1.05;font-family:'Neutra Text';-inkscape-font-specification:'Neutra Text';word-spacing:0px;fill:#000000;fill-opacity:1;stroke-width:8.60834"
     id="path852" />
  <path
     d="M 435.66613,589.901 H 589.92724 V 547.54805 H 483.87273 V 355.75466 h -48.2066 z"
     style="font-size:341.94px;line-height:1.05;font-family:'Neutra Text';-inkscape-font-specification:'Neutra Text';word-spacing:0px;fill:#000000;fill-opacity:1;stroke-width:8.60834"
     id="path854" />
</svg>
