<?xml version="1.0" encoding="UTF-8" standalone="no"?>
<!-- Created with Inkscape (http://www.inkscape.org/) -->

<svg
   version="1.1"
   id="svg32538"
   width="100"
   height="100"
   viewBox="0 0 100 100"
   sodipodi:docname="layers.svg"
   inkscape:export-filename="Screenshot 2022-11-26 155112.svg"
   inkscape:export-xdpi="96"
   inkscape:export-ydpi="96"
   inkscape:version="1.4 (86a8ad7, 2024-10-11)"
   xml:space="preserve"
   xmlns:inkscape="http://www.inkscape.org/namespaces/inkscape"
   xmlns:sodipodi="http://sodipodi.sourceforge.net/DTD/sodipodi-0.dtd"
   xmlns="http://www.w3.org/2000/svg"
   xmlns:svg="http://www.w3.org/2000/svg"><defs
     id="defs32542" /><sodipodi:namedview
     id="namedview32540"
     pagecolor="#ffffff"
     bordercolor="#999999"
     borderopacity="1"
     inkscape:showpageshadow="0"
     inkscape:pageopacity="0"
     inkscape:pagecheckerboard="0"
     inkscape:deskcolor="#d1d1d1"
     showgrid="false"
     inkscape:zoom="3.4456992"
     inkscape:cx="4.6434697"
     inkscape:cy="39.324384"
     inkscape:window-width="1920"
     inkscape:window-height="1017"
     inkscape:window-x="-8"
     inkscape:window-y="-8"
     inkscape:window-maximized="1"
     inkscape:current-layer="g32544" /><g
     inkscape:groupmode="layer"
     inkscape:label="Image"
     id="g32544"
     transform="translate(-9.9999952,-10)"><g
       id="g3933"
       transform="matrix(2.0476412,0,0,2.0476412,10.856606,10.856611)"
       style="stroke:none;stroke-opacity:0.3019608"><path
         d="M 0,0 H 48 V 48 H 0 Z"
         fill="none"
         id="path2"
         style="stroke:none;stroke-opacity:0.3019608" /></g><g
       id="g1065"
       transform="translate(-62.20881,57.111829)"
       style="stroke:#cccccc;stroke-opacity:0.3019608"><g
         aria-label="+"
         id="text955-7"
         style="font-size:57.2089px;line-height:1.25;font-family:Roboto;-inkscape-font-specification:Roboto;stroke-width:1.43023;stroke:#cccccc;stroke-opacity:0.3019608" /></g><path
       d="m 88.793865,52.937343 4.85635,2.697972 c 3.784356,2.10242 3.784356,6.831516 0,8.933936 l -4.85635,2.697972 4.85635,2.697973 c 3.784356,2.102419 3.784356,6.831516 0,8.933935 L 64.807168,94.923046 c -2.409451,1.338583 -5.877325,1.338583 -8.286776,0 L 27.677348,78.899131 c -3.784357,-2.102419 -3.784357,-6.831516 0,-8.933935 l 4.856346,-2.697973 -4.856346,-2.697972 c -3.784357,-2.10242 -3.784357,-6.831516 0,-8.933936 l 4.856346,-2.697972 -4.856346,-2.697973 c -3.784357,-2.102419 -3.784357,-6.831516 0,-8.933935 L 56.520392,25.28152 c 2.409451,-1.338583 5.877325,-1.338583 8.286776,0 l 28.843047,16.023915 c 3.784356,2.102419 3.784356,6.831516 0,8.933935 z m -7.376757,4.098199 -16.60994,9.227744 c -2.409451,1.338583 -5.877325,1.338583 -8.286776,0 l -16.60994,-9.227744 -5.520136,3.066741 25.609679,14.227597 c 0.245471,0.136385 1.082096,0.136385 1.32757,0 L 86.937243,60.102283 Z m 0,14.32988 -16.60994,9.227744 c -2.409451,1.338583 -5.877325,1.338583 -8.286776,0 l -16.60994,-9.227744 -5.520136,3.066741 25.609679,14.227597 c 0.245471,0.136385 1.082096,0.136385 1.32757,0 L 86.937243,74.432163 Z M 61.327565,31.544806 c -0.245471,-0.136385 -1.082092,-0.136385 -1.32757,0 L 34.390316,45.772403 59.999995,60 c 0.245471,0.136385 1.082096,0.136385 1.32757,0 L 86.937243,45.772403 Z"
       fill-rule="evenodd"
       id="path1"
       style="fill:#cccccc;fill-opacity:1;stroke-width:3.58247" /></g></svg>
