<?xml version="1.0" encoding="UTF-8" standalone="no"?>
<!-- Created with Inkscape (http://www.inkscape.org/) -->

<svg
   width="100mm"
   height="100mm"
   viewBox="0 0 100 100"
   version="1.1"
   id="svg5"
   xml:space="preserve"
   inkscape:version="1.2.2 (732a01da63, 2022-12-09)"
   sodipodi:docname="drawing.svg"
   xmlns:inkscape="http://www.inkscape.org/namespaces/inkscape"
   xmlns:sodipodi="http://sodipodi.sourceforge.net/DTD/sodipodi-0.dtd"
   xmlns="http://www.w3.org/2000/svg"
   xmlns:svg="http://www.w3.org/2000/svg"><sodipodi:namedview
     id="namedview7"
     pagecolor="#ffffff"
     bordercolor="#666666"
     borderopacity="1.0"
     inkscape:showpageshadow="2"
     inkscape:pageopacity="0.0"
     inkscape:pagecheckerboard="0"
     inkscape:deskcolor="#d1d1d1"
     inkscape:document-units="mm"
     showgrid="false"
     inkscape:zoom="1.1187524"
     inkscape:cx="79.999825"
     inkscape:cy="316.42389"
     inkscape:window-width="1920"
     inkscape:window-height="1017"
     inkscape:window-x="1072"
     inkscape:window-y="457"
     inkscape:window-maximized="1"
     inkscape:current-layer="layer1" /><defs
     id="defs2" /><g
     inkscape:label="Layer 1"
     inkscape:groupmode="layer"
     id="layer1"><path
       style="fill:#000000;stroke-width:0.199402"
       d="m 12.367209,92.26949 c -1.645071,-1.044849 -3.0670378,-2.011364 -3.1599248,-2.14782 -0.110851,-0.16284 0.443429,-1.206355 1.6129678,-3.03664 0.98002,-1.533702 4.143332,-6.512386 7.029582,-11.063754 2.886252,-4.551358 6.474826,-10.204421 7.974622,-12.562357 1.499788,-2.357928 5.089424,-8.010991 7.976956,-12.562356 2.887539,-4.551359 6.789849,-10.697939 8.671804,-13.659064 1.881955,-2.961133 5.385525,-8.479594 7.78571,-12.263257 3.354514,-5.288079 9.774488,-15.3954817 11.958904,-18.8277196 0.169721,-0.2666705 0.644617,-0.032558 3.190437,1.57302 1.645076,1.0374783 3.068219,2.0049809 3.162545,2.1500119 0.116582,0.1792397 -0.399697,1.1554017 -1.612074,3.0480807 -0.980962,1.531411 -4.145308,6.508234 -7.031875,11.059592 -2.886567,4.551366 -6.475728,10.204428 -7.975916,12.562357 -1.50018,2.357936 -5.088935,8.010998 -7.975004,12.562356 -2.886062,4.551366 -6.474214,10.204428 -7.973663,12.562357 -1.499441,2.357936 -3.808337,5.992045 -5.130868,8.075804 -3.03156,4.776458 -15.046597,23.698235 -15.313764,24.116743 -0.169418,0.265389 -0.649152,0.02668 -3.190439,-1.587354 z m 22.67763,-11.612098 0.05426,-3.738799 17.198462,-0.05095 17.198463,-0.05095 v -9.564411 -9.564408 l 9.276033,6.981004 c 5.101822,3.839553 9.408916,7.031995 9.571319,7.094322 0.259677,0.09964 0.295287,-2.52514 0.295287,-21.763929 0,-19.238789 -0.03565,-21.863577 -0.295287,-21.763929 -0.162403,0.06233 -4.469497,3.254768 -9.571319,7.094322 l -9.276033,6.980981 V 30.850813 19.390975 h 3.784341 3.784342 l 0.05419,3.804825 0.05419,3.804826 5.047959,-3.804826 5.047959,-3.804825 h 4.473504 4.473514 v 30.60828 30.608283 h -4.473514 -4.473507 l -5.047959,-3.804713 -5.047959,-3.804714 -0.05291,5.699037 -0.05291,5.699035 H 56.028894 34.990592 Z M 4.4908106,44.316281 V 15.602322 h 19.1470354 19.14704 l -0.05426,3.738799 -0.05426,3.738798 -15.254286,0.0997 -15.254293,0.0997 -0.05062,24.87546 -0.05063,24.87546 H 8.2786582 4.4907865 Z"
       id="path248" /></g></svg>
