<?xml version="1.0" encoding="UTF-8" standalone="no"?>
<!-- Created with Inkscape (http://www.inkscape.org/) -->

<svg
   width="164"
   height="314"
   viewBox="0 0 43.391666 83.079169"
   version="1.1"
   id="svg1424"
   inkscape:version="1.2.2 (732a01da63, 2022-12-09)"
   sodipodi:docname="nsis_un_welcom.svg"
   inkscape:export-filename="nsis_un_welcom.png"
   inkscape:export-xdpi="96"
   inkscape:export-ydpi="96"
   xmlns:inkscape="http://www.inkscape.org/namespaces/inkscape"
   xmlns:sodipodi="http://sodipodi.sourceforge.net/DTD/sodipodi-0.dtd"
   xmlns="http://www.w3.org/2000/svg"
   xmlns:svg="http://www.w3.org/2000/svg"
   xmlns:rdf="http://www.w3.org/1999/02/22-rdf-syntax-ns#"
   xmlns:cc="http://creativecommons.org/ns#"
   xmlns:dc="http://purl.org/dc/elements/1.1/">
  <defs
     id="defs1418" />
  <sodipodi:namedview
     id="base"
     pagecolor="#ffffff"
     bordercolor="#666666"
     borderopacity="1.0"
     inkscape:pageopacity="0.0"
     inkscape:pageshadow="2"
     inkscape:zoom="1.4"
     inkscape:cx="-237.14286"
     inkscape:cy="183.57143"
     inkscape:document-units="mm"
     inkscape:current-layer="layer1"
     showgrid="false"
     units="px"
     inkscape:window-width="1080"
     inkscape:window-height="1857"
     inkscape:window-x="-8"
     inkscape:window-y="-8"
     inkscape:window-maximized="1"
     inkscape:showpageshadow="2"
     inkscape:pagecheckerboard="0"
     inkscape:deskcolor="#d1d1d1" />
  <metadata
     id="metadata1421">
    <rdf:RDF>
      <cc:Work
         rdf:about="">
        <dc:format>image/svg+xml</dc:format>
        <dc:type
           rdf:resource="http://purl.org/dc/dcmitype/StillImage" />
        <dc:title />
      </cc:Work>
    </rdf:RDF>
  </metadata>
  <g
     inkscape:label="Layer 1"
     inkscape:groupmode="layer"
     id="layer1"
     transform="translate(0,-213.92082)">
    <path
       style="fill:#cccccc;fill-opacity:1;stroke:none;stroke-width:0.264583px;stroke-linecap:butt;stroke-linejoin:miter;stroke-opacity:1"
       d="M 0,296.99999 H 35.947752 L 0,250.50555 Z"
       id="path817"
       sodipodi:nodetypes="cccc" />
    <path
       style="fill:#ffffff;fill-opacity:1;stroke-width:0.02765278"
       d="m 10.784576,292.36265 c -1.7059447,-0.16513 -3.291285,-0.93136 -4.4683297,-2.15973 -2.6166251,-2.73065 -2.6166251,-7.05098 0,-9.78163 0.908799,-0.94841 2.124757,-1.65948 3.358452,-1.96394 1.3615177,-0.336 2.6588577,-0.29185 3.9570337,0.13457 1.959583,0.64384 3.527418,2.09114 4.323409,3.99105 0.894497,2.13503 0.670978,4.64313 -0.585754,6.57278 -1.12404,1.72592 -2.88561,2.85073 -4.957065,3.16523 -0.348633,0.0529 -1.267775,0.0765 -1.627746,0.0416 z m -0.529171,-3.829 1.175003,-1.17524 1.182265,1.18204 1.182268,1.18202 1.023174,-1.02291 1.023173,-1.02288 -1.182048,-1.1823 -1.182044,-1.18225 1.182044,-1.1823 1.182048,-1.18228 -1.023215,-1.02294 -1.023213,-1.02294 -1.182026,1.18202 -1.182027,1.18204 -1.182226,-1.182 -1.1822257,-1.18197 -1.0231721,1.02289 -1.023174,1.0229 1.1820461,1.18228 1.182046,1.1823 -1.183435,1.18366 -1.1834352,1.18367 1.0176394,1.01429 c 0.5596998,0.55785 1.0239148,1.01446 1.0315858,1.01472 0.0076,2.4e-4 0.5427,-0.52845 1.1889487,-1.17482 z"
       id="path1416"
       inkscape:connector-curvature="0" />
    <g
       id="layer1-6"
       inkscape:label="Layer 1"
       transform="matrix(0.72912007,0,0,0.72912007,2.8920692,212.40294)"
       style="fill:#000000;fill-opacity:1">
      <path
         d="m 39.974607,14.81007 c 0,0 -2.086275,0.04574 -4.172512,0.03913 -0.217316,-6.91e-4 -0.441175,-8.06e-4 -0.67047,-1.48e-4 -3.439521,0.01007 -8.104893,0.06424 -10.631857,0.83593 -4.621415,1.411306 -7.164257,3.390576 -9.256392,5.729801 -0.378448,0.429105 -0.871841,1.080076 -1.430813,1.9141 0.299028,0.656615 0.448915,1.427137 0.448915,2.312423 0,0.982046 -0.178174,1.807745 -0.534621,2.476989 -0.356446,0.66925 -0.811148,1.196596 -1.364004,1.58214 -0.545581,0.37827 -1.102075,0.629238 -1.669481,0.752903 -0.226396,0.04485 -0.486274,0.08229 -0.772245,0.113977 -0.9851867,2.280023 -1.8837972,4.832628 -2.5034769,7.516828 l 29.9622619,0.02246 c 0.292975,-2.588018 0.538748,-4.793622 0.766301,-6.849185 -0.367112,-0.894461 -0.550994,-1.931152 -0.550994,-3.110708 0,-1.997545 0.473315,-3.58438 1.419211,-4.761146 0.285906,-2.590594 0.583384,-5.269639 0.960177,-8.575504 z m -24.776613,7.649108 h 4.634965 c 1.165562,0 2.011213,0.0992 2.536956,0.297591 0.530703,0.193433 0.954769,0.54062 1.272199,1.041565 0.317429,0.500942 0.476142,1.073805 0.476142,1.718581 0,0.818374 -0.240551,1.495392 -0.721654,2.031054 -0.481106,0.5307 -1.200281,0.865492 -2.157528,1.004367 0.476143,0.277746 0.867969,0.582779 1.175479,0.915089 0.312471,0.332307 0.731576,0.92253 1.257319,1.77066 l 1.331718,2.127769 H 22.369915 L 20.77781,30.992573 c -0.565423,-0.848127 -0.952291,-1.381312 -1.160604,-1.599545 -0.208313,-0.223193 -0.429024,-0.374469 -0.662137,-0.453827 -0.233113,-0.08432 -0.60262,-0.126476 -1.108523,-0.126476 h -0.446385 v 4.553129 h -2.202167 z m 12.573628,0 h 4.024907 c 0.90765,0 1.599547,0.06944 2.07569,0.208313 0.639819,0.188474 1.18788,0.523264 1.644189,1.004367 0.456303,0.481101 0.803491,1.071323 1.041562,1.770659 0.238071,0.694379 0.35711,1.552431 0.35711,2.574157 0,0.89773 -0.111596,1.671463 -0.334789,2.321202 -0.272788,0.793571 -0.662141,1.435873 -1.168044,1.926894 -0.381904,0.37199 -0.897727,0.66214 -1.547466,0.870453 -0.486061,0.153755 -1.135802,0.230631 -1.949215,0.230631 h -4.143944 z m -10.371461,1.845059 v 2.767587 h 1.629305 c 1.056445,0 1.716104,-0.04464 1.978975,-0.133917 0.262871,-0.08928 0.468705,-0.243029 0.617499,-0.461265 0.148797,-0.218231 0.223193,-0.491022 0.223193,-0.818371 0,-0.367029 -0.0992,-0.662138 -0.297591,-0.885331 -0.193435,-0.228152 -0.468705,-0.371987 -0.825811,-0.431504 -0.178555,-0.02479 -0.714217,-0.0372 -1.606988,-0.0372 z m 12.573628,0 v 7.223998 h 1.644186 c 0.61502,0 1.058925,-0.03472 1.331716,-0.104155 0.357108,-0.08928 0.652219,-0.240551 0.885332,-0.453825 0.238071,-0.213274 0.43151,-0.562941 0.580301,-1.049005 0.148796,-0.491023 0.223196,-1.158122 0.223196,-2.001294 0,-0.843171 -0.0744,-1.490428 -0.223196,-1.941776 -0.148791,-0.451343 -0.357107,-0.803492 -0.62494,-1.056443 -0.267832,-0.252952 -0.607579,-0.424067 -1.019248,-0.513344 -0.30751,-0.06944 -0.910129,-0.104156 -1.807858,-0.104156 z m -5.828153,3.520787 h 2.770416 v 1.385283 h -2.770416 z"
         style="fill:#000000;fill-opacity:1;stroke:none;stroke-width:0.076183px;stroke-linecap:butt;stroke-linejoin:miter;stroke-opacity:1"
         id="path847" />
      <path
         d="M 4.2512008,33.365897 V 22.459214 h 3.5338845 q 2.0087345,0 2.6187947,0.163674 0.937409,0.245512 1.569788,1.071325 0.63238,0.818373 0.63238,2.120331 0,1.004367 -0.364548,1.688825 -0.364549,0.684457 -0.92997,1.078764 -0.557982,0.386868 -1.138283,0.513344 -0.7886139,0.156234 -2.2840052,0.156234 H 6.453369 v 4.114186 z M 6.453369,24.304273 v 3.094939 h 1.2052404 q 1.3019576,0 1.7409031,-0.171114 0.4389457,-0.171115 0.6844575,-0.535663 0.252952,-0.364548 0.252952,-0.848132 0,-0.595181 -0.3496686,-0.982048 -0.3496686,-0.386867 -0.8853311,-0.483584 -0.3943071,-0.0744 -1.5846681,-0.0744 z"
         style="font-style:normal;font-variant:normal;font-weight:bold;font-stretch:normal;font-size:52.9167px;line-height:1.25;font-family:arial;-inkscape-font-specification:'arial Bold';letter-spacing:0px;word-spacing:0px;fill:#000000;fill-opacity:1;stroke:none;stroke-width:0.076183"
         id="path902" />
      <path
         d="m 46.530256,29.355868 2.135209,0.677018 q -0.491023,1.785542 -1.636746,2.655993 -1.138283,0.863012 -2.894065,0.863012 -2.17241,0 -3.571082,-1.480512 -1.398675,-1.487951 -1.398675,-4.062107 0,-2.722951 1.406112,-4.225782 1.406115,-1.51027 3.697559,-1.51027 2.001296,0 3.251174,1.182921 0.743978,0.699337 1.115965,2.008734 l -2.179848,0.520783 q -0.193435,-0.848132 -0.810934,-1.339156 -0.610062,-0.491024 -1.487953,-0.491024 -1.212679,0 -1.971535,0.870451 -0.751415,0.870452 -0.751415,2.819668 0,2.068253 0.743975,2.946144 0.743978,0.877891 1.934337,0.877891 0.877891,0 1.51027,-0.557981 0.632379,-0.557982 0.907652,-1.755783 z"
         style="font-style:normal;font-variant:normal;font-weight:bold;font-stretch:normal;font-size:52.9167px;line-height:1.25;font-family:arial;-inkscape-font-specification:'arial Bold';letter-spacing:0px;word-spacing:0px;fill:#000000;fill-opacity:1;stroke:none;stroke-width:0.076183"
         id="path908" />
    </g>
  </g>
</svg>
