<?xml version="1.0" encoding="UTF-8" standalone="no"?>
<svg
   xmlns:dc="http://purl.org/dc/elements/1.1/"
   xmlns:cc="http://creativecommons.org/ns#"
   xmlns:rdf="http://www.w3.org/1999/02/22-rdf-syntax-ns#"
   xmlns:svg="http://www.w3.org/2000/svg"
   xmlns="http://www.w3.org/2000/svg"
   xmlns:sodipodi="http://sodipodi.sourceforge.net/DTD/sodipodi-0.dtd"
   xmlns:inkscape="http://www.inkscape.org/namespaces/inkscape"
   width="256"
   height="256"
   viewBox="0 0 67.733331 67.733331"
   version="1.1"
   id="svg8"
   inkscape:version="1.0.1 (3bc2e813f5, 2020-09-07)"
   sodipodi:docname="folder.svg">
  <defs
     id="defs2">
    <style
       id="style883">.cls-1{fill:#101820;}</style>
  </defs>
  <sodipodi:namedview
     id="base"
     pagecolor="#ffffff"
     bordercolor="#666666"
     borderopacity="1.0"
     inkscape:pageopacity="0"
     inkscape:pageshadow="2"
     inkscape:zoom="1.4"
     inkscape:cx="149.84376"
     inkscape:cy="217.46778"
     inkscape:document-units="mm"
     inkscape:current-layer="layer1"
     inkscape:document-rotation="0"
     showgrid="false"
     units="px"
     inkscape:window-width="1920"
     inkscape:window-height="1017"
     inkscape:window-x="1072"
     inkscape:window-y="554"
     inkscape:window-maximized="1" />
  <metadata
     id="metadata5">
    <rdf:RDF>
      <cc:Work
         rdf:about="">
        <dc:format>image/svg+xml</dc:format>
        <dc:type
           rdf:resource="http://purl.org/dc/dcmitype/StillImage" />
        <dc:title></dc:title>
      </cc:Work>
    </rdf:RDF>
  </metadata>
  <g
     inkscape:label="Layer 1"
     inkscape:groupmode="layer"
     id="layer1">
    <g
       data-name="Layer 39"
       id="Layer_39"
       transform="matrix(2.0127049,0,0,2.0127049,1.640894,1.6631382)"
       style="fill:#5f6368;fill-opacity:1">
      <path
         class="cls-1"
         d="M 4,28 A 3,3 0 0 1 1,25 V 7 A 3,3 0 0 1 4,4 h 7 a 1,1 0 0 1 0.77,0.36 L 14.8,8 H 27 a 1,1 0 0 1 0,2 H 14.33 A 1,1 0 0 1 13.57,9.64 L 10.53,6 H 4 A 1,1 0 0 0 3,7 v 18 a 1,1 0 0 0 1,1 1,1 0 0 1 0,2 z"
         id="path889"
         style="fill:#5f6368;fill-opacity:1" />
      <path
         class="cls-1"
         d="M 25.38,28 H 4 A 1,1 0 0 1 3,26.79 l 3,-14 A 1,1 0 0 1 7,12 h 23 a 1,1 0 0 1 1,1.21 L 28.32,25.63 A 3,3 0 0 1 25.38,28 Z M 5.24,26 h 20.14 a 1,1 0 0 0 1,-0.79 L 28.76,14 h -21 z"
         id="path891"
         style="fill:#5f6368;fill-opacity:1" />
    </g>
  </g>
</svg>
