<?xml version="1.0" encoding="UTF-8" standalone="no"?>
<svg
   width="256"
   height="256"
   viewBox="0 0 67.733331 67.733331"
   version="1.1"
   id="svg8"
   inkscape:version="1.1 (c68e22c387, 2021-05-23)"
   sodipodi:docname="pan.svg"
   xmlns:inkscape="http://www.inkscape.org/namespaces/inkscape"
   xmlns:sodipodi="http://sodipodi.sourceforge.net/DTD/sodipodi-0.dtd"
   xmlns="http://www.w3.org/2000/svg"
   xmlns:svg="http://www.w3.org/2000/svg"
   xmlns:rdf="http://www.w3.org/1999/02/22-rdf-syntax-ns#"
   xmlns:cc="http://creativecommons.org/ns#"
   xmlns:dc="http://purl.org/dc/elements/1.1/">
  <defs
     id="defs2" />
  <sodipodi:namedview
     id="base"
     pagecolor="#000000"
     bordercolor="#666666"
     borderopacity="1.0"
     inkscape:pageopacity="0"
     inkscape:pageshadow="2"
     inkscape:zoom="0.35"
     inkscape:cx="-230"
     inkscape:cy="447.14285"
     inkscape:document-units="mm"
     inkscape:current-layer="layer1"
     inkscape:document-rotation="0"
     showgrid="false"
     units="px"
     inkscape:window-width="1920"
     inkscape:window-height="1017"
     inkscape:window-x="1072"
     inkscape:window-y="593"
     inkscape:window-maximized="1"
     inkscape:pagecheckerboard="1" />
  <metadata
     id="metadata5">
    <rdf:RDF>
      <cc:Work
         rdf:about="">
        <dc:format>image/svg+xml</dc:format>
        <dc:type
           rdf:resource="http://purl.org/dc/dcmitype/StillImage" />
      </cc:Work>
    </rdf:RDF>
  </metadata>
  <g
     inkscape:label="Layer 1"
     inkscape:groupmode="layer"
     id="layer1">
    <ellipse
       style="fill:none;stroke:#ffffff;stroke-width:2.59956;stroke-linecap:round;stroke-linejoin:round;stroke-miterlimit:4;stroke-dasharray:none;stroke-opacity:1;paint-order:stroke fill markers"
       id="path833"
       cx="33.866665"
       cy="33.866669"
       rx="32.566887"
       ry="32.566883" />
    <path
       d="m 56.766391,31.683894 -5.909319,-5.909319 c -0.576299,-0.577794 -1.26756,-0.865947 -2.060348,-0.865947 -1.773691,0 -2.986008,1.516896 -2.986008,2.986014 0,0.770391 0.277685,1.472103 0.865942,2.060348 l 0.925665,0.925666 H 36.85268 V 20.131013 l 0.925661,0.92566 c 0.588245,0.588245 1.289956,0.865947 2.060348,0.865947 1.469118,0 2.986013,-1.213817 2.986013,-2.986013 0,-0.792788 -0.288124,-1.484049 -0.865941,-2.060349 l -5.931715,-5.933204 c -0.547921,-0.547921 -1.071979,-0.9644824 -2.160379,-0.9644824 -1.0884,0 -1.694561,0.4986584 -2.184265,0.9883684 l -5.907829,5.909318 c -0.577789,0.5763 -0.865941,1.267561 -0.865941,2.060349 0,1.77369 1.516895,2.986013 2.986013,2.986013 0.770392,0 1.472103,-0.277684 2.060348,-0.865947 l 0.925661,-0.92566 V 30.880656 H 20.131011 l 0.925665,-0.925666 c 0.588246,-0.588245 0.865942,-1.289957 0.865942,-2.060348 0,-1.469118 -1.213813,-2.986014 -2.986008,-2.986014 -0.792788,0 -1.484049,0.288181 -2.060348,0.865947 l -5.909319,5.909319 c -0.489687,0.489687 -0.9883684,1.094369 -0.9883684,2.18277 0,1.088406 0.4165554,1.612446 0.9644824,2.160379 l 5.933205,5.931715 c 0.576299,0.577794 1.26756,0.865941 2.060348,0.865941 1.773691,0 2.986008,-1.51689 2.986008,-2.986008 0,-0.770391 -0.277685,-1.472103 -0.865942,-2.060348 L 20.131011,36.852677 H 30.880654 V 47.60232 l -0.925661,-0.925666 c -0.588245,-0.588239 -1.289956,-0.865941 -2.060348,-0.865941 -1.469118,0 -2.986013,1.213812 -2.986013,2.986013 0,0.792782 0.28818,1.484049 0.865941,2.060349 l 5.907829,5.909318 c 0.489687,0.489687 1.095865,0.988369 2.184265,0.988369 1.0884,0 1.612446,-0.416556 2.160379,-0.964483 l 5.931715,-5.933204 c 0.577789,-0.5763 0.865941,-1.267567 0.865941,-2.060349 0,-1.77369 -1.516895,-2.986013 -2.986013,-2.986013 -0.770392,0 -1.472103,0.277684 -2.060348,0.865941 L 36.85268,47.60232 V 36.852677 h 10.749643 l -0.925665,0.925666 c -0.588246,0.588245 -0.865942,1.289957 -0.865942,2.060348 0,1.469118 1.213813,2.986008 2.986008,2.986008 0.792788,0 1.484049,-0.288124 2.060348,-0.865941 l 5.933205,-5.931715 c 0.547921,-0.547922 0.964482,-1.071973 0.964482,-2.160379 0,-1.088401 -0.498659,-1.693066 -0.988368,-2.18277 z"
       id="path12350"
       style="fill:#ffffff;fill-opacity:1;stroke-width:1.493" />
  </g>
</svg>
