<?xml version="1.0" encoding="UTF-8" standalone="no"?>
<svg
   width="256"
   height="256"
   viewBox="0 0 67.733331 67.733331"
   version="1.1"
   id="svg8"
   inkscape:version="1.1 (c68e22c387, 2021-05-23)"
   sodipodi:docname="replace-all.svg"
   xmlns:inkscape="http://www.inkscape.org/namespaces/inkscape"
   xmlns:sodipodi="http://sodipodi.sourceforge.net/DTD/sodipodi-0.dtd"
   xmlns="http://www.w3.org/2000/svg"
   xmlns:svg="http://www.w3.org/2000/svg"
   xmlns:rdf="http://www.w3.org/1999/02/22-rdf-syntax-ns#"
   xmlns:cc="http://creativecommons.org/ns#"
   xmlns:dc="http://purl.org/dc/elements/1.1/">
  <defs
     id="defs2" />
  <sodipodi:namedview
     id="base"
     pagecolor="#ffffff"
     bordercolor="#666666"
     borderopacity="1.0"
     inkscape:pageopacity="0"
     inkscape:pageshadow="2"
     inkscape:zoom="1.979899"
     inkscape:cx="65.407378"
     inkscape:cy="-1.767767"
     inkscape:document-units="mm"
     inkscape:current-layer="layer1"
     inkscape:document-rotation="0"
     showgrid="false"
     units="px"
     inkscape:window-width="1080"
     inkscape:window-height="1857"
     inkscape:window-x="-8"
     inkscape:window-y="-8"
     inkscape:window-maximized="1"
     inkscape:pagecheckerboard="1" />
  <metadata
     id="metadata5">
    <rdf:RDF>
      <cc:Work
         rdf:about="">
        <dc:format>image/svg+xml</dc:format>
        <dc:type
           rdf:resource="http://purl.org/dc/dcmitype/StillImage" />
      </cc:Work>
    </rdf:RDF>
  </metadata>
  <g
     inkscape:label="Layer 1"
     inkscape:groupmode="layer"
     id="layer1">
    <g
       id="g843"
       transform="matrix(0,-0.45999448,0.45999448,0,-6.0981247,39.181782)"
       style="stroke:#5f6368;stroke-width:4.94526;stroke-miterlimit:4;stroke-dasharray:none;stroke-opacity:1">
      <path
         style="fill:none;stroke:#5f6368;stroke-width:4.94526;stroke-linecap:round;stroke-linejoin:round;stroke-miterlimit:4;stroke-dasharray:none;stroke-opacity:1"
         d="M 40.880845,60.28556 19.032699,39.176267 40.880845,18.066974"
         id="path849"
         sodipodi:nodetypes="ccc" />
      <path
         style="fill:none;stroke:#5f6368;stroke-width:4.94526;stroke-linecap:butt;stroke-linejoin:miter;stroke-miterlimit:4;stroke-dasharray:none;stroke-opacity:1"
         d="m 19.032699,39.071257 c 0,0 13.779424,-0.002 21.326084,0.07652 8.023273,0.08347 22.655661,0.472194 25.850604,9.997862 1.156801,3.448981 1.355284,8.040121 -0.160324,14.110611 -1.785973,7.153394 -1.785973,7.153394 -1.785973,7.153394"
         id="path851"
         sodipodi:nodetypes="csssc" />
    </g>
    <path
       id="rect6856"
       style="fill:none;stroke:#5f6368;stroke-width:2.5351;stroke-miterlimit:4.12308;stroke-opacity:1;paint-order:stroke fill markers"
       d="m 14.191495,38.499143 h 34.264007 c 1.110866,0 2.005174,0.816681 2.005174,1.831123 v 22.465303 c 0,1.014441 -0.894308,1.831123 -2.005174,1.831123 H 14.191495 c -1.110868,0 -2.005175,-0.816682 -2.005175,-1.831123 V 40.330266 c 0,-1.014442 0.894307,-1.831123 2.005175,-1.831123 z" />
    <path
       id="rect6856-7"
       style="color:#000000;fill:#5f6368;stroke-width:0.915561;stroke-miterlimit:4.12308;-inkscape-stroke:none;paint-order:stroke fill markers"
       d="m 23.432309,31.118616 c -1.732111,0 -3.272635,1.339598 -3.272635,3.098995 v 1.689545 h 2.53408 v -1.689545 c 0,-0.269482 0.248933,-0.563022 0.738555,-0.563022 h 34.263549 c 0.489619,0 0.73666,0.293542 0.73666,0.563022 v 22.465598 c 0,0.26948 -0.247043,0.563024 -0.73666,0.563024 h -3.918457 v 2.535498 h 3.918457 c 1.732111,0 3.272636,-1.339122 3.272633,-3.098522 V 34.217611 c 3e-6,-1.7594 -1.540525,-3.098995 -3.272633,-3.098995 z" />
    <g
       aria-label="ab"
       id="text14693"
       style="font-weight:bold;font-size:33.6976px;line-height:1.05;font-family:Roboto;-inkscape-font-specification:'Roboto Bold';word-spacing:0px;fill:#5f6368;stroke-width:0.842442">
      <path
         d="m 39.642871,27.130245 q -0.329078,-0.641702 -0.477164,-1.596029 -1.72766,1.925107 -4.491916,1.925107 -2.616171,0 -4.343832,-1.513759 -1.711206,-1.51376 -1.711206,-3.817306 0,-2.830072 2.089646,-4.343832 2.1061,-1.513759 6.071492,-1.530213 h 2.18837 v -1.020142 q 0,-1.234043 -0.641703,-1.974469 -0.625248,-0.740426 -1.990923,-0.740426 -1.201135,0 -1.892199,0.575887 -0.67461,0.575886 -0.67461,1.579575 h -4.755179 q 0,-1.546668 0.954327,-2.86298 0.954326,-1.316313 2.69844,-2.0567385 1.744114,-0.7568797 3.91603,-0.7568797 3.290781,0 5.215889,1.6618442 1.941561,1.645391 1.941561,4.640002 v 7.716882 q 0.01645,2.533902 0.707518,3.833761 v 0.279716 z M 35.710387,23.82301 q 1.05305,0 1.941561,-0.460709 0.888511,-0.477164 1.316313,-1.266951 v -3.060427 h -1.777022 q -3.570498,0 -3.800853,2.468086 l -0.01645,0.279716 q 0,0.888511 0.625249,1.464398 0.625248,0.575887 1.711206,0.575887 z"
         id="path18785" />
      <path
         d="m 63.435219,18.393221 q 0,4.278015 -1.826383,6.680286 -1.826384,2.385816 -5.100711,2.385816 -2.895888,0 -4.623548,-2.221277 l -0.213901,1.892199 H 47.39266 V 1.8570442 h 4.755179 v 9.0661028 q 1.645391,-1.9251072 4.327378,-1.9251072 3.257873,0 5.100711,2.4022702 1.859291,2.385817 1.859291,6.729648 z M 58.68004,18.047689 q 0,-2.698441 -0.855603,-3.932484 -0.855603,-1.250497 -2.550355,-1.250497 -2.27064,0 -3.126243,1.859291 v 7.025819 q 0.872057,1.875745 3.15915,1.875745 2.303547,0 3.027519,-2.270639 0.345532,-1.085958 0.345532,-3.307235 z"
         id="path18787" />
    </g>
    <g
       aria-label="bc"
       id="text16749"
       style="font-weight:bold;font-size:28.0479px;line-height:1.05;font-family:Roboto;-inkscape-font-specification:'Roboto Bold';word-spacing:0px;fill:#5f6368;stroke-width:0.7012">
      <path
         d="m 29.971518,54.393934 q 0,3.560768 -1.520174,5.560277 -1.520174,1.985813 -4.245532,1.985813 -2.410366,0 -3.848369,-1.848861 l -0.178038,1.574956 H 16.618636 V 40.630194 h 3.957931 v 7.54609 q 1.369527,-1.602346 3.601855,-1.602346 2.711662,0 4.245531,1.999509 1.547565,1.985813 1.547565,5.601363 z m -3.957931,-0.287601 q 0,-2.246023 -0.712154,-3.273168 -0.712153,-1.04084 -2.122766,-1.04084 -1.889946,0 -2.6021,1.547565 v 5.847878 q 0.725849,1.56126 2.629491,1.56126 1.917337,0 2.519928,-1.889947 0.287601,-0.903887 0.287601,-2.752748 z"
         id="path18780" />
      <path
         d="m 38.572144,58.749028 q 1.095621,0 1.780384,-0.602592 0.684763,-0.602592 0.712154,-1.602346 h 3.711416 q -0.01369,1.506479 -0.821716,2.766443 -0.80802,1.246269 -2.218632,1.944728 -1.396917,0.684763 -3.09513,0.684763 -3.177301,0 -5.012466,-2.013204 -1.835166,-2.026899 -1.835166,-5.587667 v -0.26021 q 0,-3.423816 1.82147,-5.46441 1.82147,-2.040595 4.998772,-2.040595 2.780138,0 4.45096,1.588651 1.684517,1.574955 1.711908,4.204446 h -3.711416 q -0.02739,-1.150402 -0.712154,-1.862556 -0.684763,-0.725849 -1.807775,-0.725849 -1.383221,0 -2.095375,1.01345 -0.698458,0.999754 -0.698458,3.259472 v 0.410858 q 0,2.287109 0.698458,3.286863 0.698458,0.999755 2.122766,0.999755 z"
         id="path18782" />
    </g>
  </g>
</svg>
