<?xml version="1.0" encoding="UTF-8" standalone="no"?>
<svg
   width="256"
   height="256"
   viewBox="0 0 67.733331 67.733331"
   version="1.1"
   id="svg8"
   inkscape:version="1.2.2 (732a01da63, 2022-12-09)"
   sodipodi:docname="reset.svg"
   xml:space="preserve"
   xmlns:inkscape="http://www.inkscape.org/namespaces/inkscape"
   xmlns:sodipodi="http://sodipodi.sourceforge.net/DTD/sodipodi-0.dtd"
   xmlns="http://www.w3.org/2000/svg"
   xmlns:svg="http://www.w3.org/2000/svg"
   xmlns:rdf="http://www.w3.org/1999/02/22-rdf-syntax-ns#"
   xmlns:cc="http://creativecommons.org/ns#"
   xmlns:dc="http://purl.org/dc/elements/1.1/"><defs
     id="defs2" /><sodipodi:namedview
     id="base"
     pagecolor="#000000"
     bordercolor="#666666"
     borderopacity="1.0"
     inkscape:pageopacity="0"
     inkscape:pageshadow="2"
     inkscape:zoom="1.4"
     inkscape:cx="-18.928571"
     inkscape:cy="137.85714"
     inkscape:document-units="mm"
     inkscape:current-layer="layer1"
     inkscape:document-rotation="0"
     showgrid="false"
     units="px"
     inkscape:window-width="1920"
     inkscape:window-height="1017"
     inkscape:window-x="-8"
     inkscape:window-y="-8"
     inkscape:window-maximized="1"
     inkscape:pagecheckerboard="1"
     inkscape:showpageshadow="2"
     inkscape:deskcolor="#000000" /><metadata
     id="metadata5"><rdf:RDF><cc:Work
         rdf:about=""><dc:format>image/svg+xml</dc:format><dc:type
           rdf:resource="http://purl.org/dc/dcmitype/StillImage" /></cc:Work></rdf:RDF></metadata><g
     inkscape:label="Layer 1"
     inkscape:groupmode="layer"
     id="layer1"><ellipse
       style="fill:none;stroke:#ffffff;stroke-width:2.59956;stroke-linecap:round;stroke-linejoin:round;stroke-miterlimit:4;stroke-dasharray:none;stroke-opacity:1;paint-order:stroke fill markers"
       id="path833"
       cx="33.866665"
       cy="33.866669"
       rx="32.566887"
       ry="32.566883" /><g
       style="fill:#ffffff;fill-opacity:1"
       id="g192"
       transform="matrix(3.3949393,0,0,3.3949393,7.5558913,8.4046262)"><path
         clip-rule="evenodd"
         d="m 4.85355,2.14645 c 0.19527,0.19526 0.19527,0.51184 0,0.7071 L 3.70711,4 H 9 c 2.4853,0 4.5,2.01472 4.5,4.5 0,2.4853 -2.0147,4.5 -4.5,4.5 H 5 C 4.72386,13 4.5,12.7761 4.5,12.5 4.5,12.2239 4.72386,12 5,12 h 4 c 1.933,0 3.5,-1.567 3.5,-3.5 C 12.5,6.567 10.933,5 9,5 H 3.70711 l 1.14644,1.14645 c 0.19527,0.19526 0.19527,0.51184 0,0.7071 -0.19526,0.19527 -0.51184,0.19527 -0.7071,0 l -2,-2 c -0.19527,-0.19526 -0.19527,-0.51184 0,-0.7071 l 2,-2 c 0.19526,-0.19527 0.51184,-0.19527 0.7071,0 z"
         fill="currentColor"
         fill-rule="evenodd"
         id="path183"
         style="fill:#ffffff;fill-opacity:1" /></g></g></svg>
