<?xml version="1.0" encoding="UTF-8" standalone="no"?>
<!-- Created with Inkscape (http://www.inkscape.org/) -->

<svg
   version="1.1"
   id="svg32538"
   width="100"
   height="100"
   viewBox="0 0 100 100"
   sodipodi:docname="reset.svg"
   inkscape:export-filename="Screenshot 2022-11-26 155112.svg"
   inkscape:export-xdpi="96"
   inkscape:export-ydpi="96"
   inkscape:version="1.2.2 (732a01da63, 2022-12-09)"
   xml:space="preserve"
   xmlns:inkscape="http://www.inkscape.org/namespaces/inkscape"
   xmlns:sodipodi="http://sodipodi.sourceforge.net/DTD/sodipodi-0.dtd"
   xmlns="http://www.w3.org/2000/svg"
   xmlns:svg="http://www.w3.org/2000/svg"><defs
     id="defs32542" /><sodipodi:namedview
     id="namedview32540"
     pagecolor="#ffffff"
     bordercolor="#999999"
     borderopacity="1"
     inkscape:showpageshadow="0"
     inkscape:pageopacity="0"
     inkscape:pagecheckerboard="0"
     inkscape:deskcolor="#d1d1d1"
     showgrid="false"
     inkscape:zoom="3.4456992"
     inkscape:cx="-24.813541"
     inkscape:cy="39.75971"
     inkscape:window-width="1920"
     inkscape:window-height="1017"
     inkscape:window-x="-8"
     inkscape:window-y="-8"
     inkscape:window-maximized="1"
     inkscape:current-layer="g32544" /><g
     inkscape:groupmode="layer"
     inkscape:label="Image"
     id="g32544"
     transform="translate(-9.9999952,-10)"><path
       d="m 34.317588,34.310912 c 6.574151,-6.592772 15.650575,-10.684838 25.705154,-10.684838 20.109165,0 36.351182,16.277332 36.351182,36.373931 0,11.538186 -5.353902,21.81742 -13.71971,28.47996 -6.2053,4.941919 -14.067714,7.893961 -22.631472,7.893961 -16.947201,0 -31.141909,-11.594183 -35.168291,-27.280442 h 9.463137 c 3.753409,10.593909 13.807989,18.186967 25.705154,18.186967 15.081871,0 27.29751,-12.208004 27.29751,-27.280446 0,-4.542383 -1.109471,-8.824599 -3.072502,-12.590915 -4.550666,-8.731004 -13.688357,-14.689534 -24.225008,-14.689534 -7.529564,0 -14.285696,3.137254 -19.221992,8.070464 L 55.473157,55.453261 H 23.626066 V 23.626074 Z"
       id="path2"
       style="fill:#cccccc;fill-opacity:1;stroke-width:2.27407"
       sodipodi:nodetypes="cssssccssssccccc" /><path
       d="m 16.816018,17.696674 h 48 v 48 h -48 z"
       fill="none"
       id="path4" /></g></svg>
