<?xml version="1.0" encoding="UTF-8" standalone="no"?>
<svg
   width="256"
   height="256"
   viewBox="0 0 67.733331 67.733331"
   version="1.1"
   id="svg8"
   inkscape:version="1.1 (c68e22c387, 2021-05-23)"
   sodipodi:docname="rotate.svg"
   xmlns:inkscape="http://www.inkscape.org/namespaces/inkscape"
   xmlns:sodipodi="http://sodipodi.sourceforge.net/DTD/sodipodi-0.dtd"
   xmlns="http://www.w3.org/2000/svg"
   xmlns:svg="http://www.w3.org/2000/svg"
   xmlns:rdf="http://www.w3.org/1999/02/22-rdf-syntax-ns#"
   xmlns:cc="http://creativecommons.org/ns#"
   xmlns:dc="http://purl.org/dc/elements/1.1/">
  <defs
     id="defs2" />
  <sodipodi:namedview
     id="base"
     pagecolor="#000000"
     bordercolor="#666666"
     borderopacity="1.0"
     inkscape:pageopacity="0"
     inkscape:pageshadow="2"
     inkscape:zoom="0.7"
     inkscape:cx="-137.85714"
     inkscape:cy="437.85714"
     inkscape:document-units="mm"
     inkscape:current-layer="layer1"
     inkscape:document-rotation="0"
     showgrid="false"
     units="px"
     inkscape:window-width="1920"
     inkscape:window-height="1017"
     inkscape:window-x="1072"
     inkscape:window-y="593"
     inkscape:window-maximized="1"
     inkscape:pagecheckerboard="1" />
  <metadata
     id="metadata5">
    <rdf:RDF>
      <cc:Work
         rdf:about="">
        <dc:format>image/svg+xml</dc:format>
        <dc:type
           rdf:resource="http://purl.org/dc/dcmitype/StillImage" />
      </cc:Work>
    </rdf:RDF>
  </metadata>
  <g
     inkscape:label="Layer 1"
     inkscape:groupmode="layer"
     id="layer1">
    <ellipse
       style="fill:none;stroke:#ffffff;stroke-width:2.59956;stroke-linecap:round;stroke-linejoin:round;stroke-miterlimit:4;stroke-dasharray:none;stroke-opacity:1;paint-order:stroke fill markers"
       id="path833"
       cx="33.866665"
       cy="33.866669"
       rx="32.566887"
       ry="32.566883" />
    <g
       id="g12476"
       transform="matrix(2.5271652,0,0,2.5271652,-5.8022451,-5.2412143)"
       style="fill:#ffffff;fill-opacity:1">
      <g
         id="Guides__x26__Forms"
         style="fill:#ffffff;fill-opacity:1" />
      <g
         id="Icons"
         style="fill:#ffffff;fill-opacity:1">
        <path
           d="M 24,13 V 7.369 L 21.899,9.47 C 20.362,7.93 18.242,6.975 15.894,6.975 c -4.694,0 -8.5,3.806 -8.5,8.5 0,4.694 3.806,8.5 8.5,8.5 3.159,0 5.91,-1.727 7.375,-4.286 l -1.737,-0.993 c -1.122,1.955 -3.226,3.278 -5.638,3.278 -3.584,0 -6.5,-2.916 -6.5,-6.5 0,-3.584 2.916,-6.5 6.5,-6.5 1.792,0 3.414,0.732 4.59,1.91 L 18.369,13 Z"
           id="path12464"
           style="fill:#ffffff;fill-opacity:1" />
      </g>
    </g>
  </g>
</svg>
