<?xml version="1.0" encoding="UTF-8" standalone="no"?>
<svg
   width="256"
   height="256"
   viewBox="0 0 67.733331 67.733331"
   version="1.1"
   id="svg8"
   inkscape:version="1.2.2 (732a01da63, 2022-12-09)"
   sodipodi:docname="search-dialog.svg"
   xml:space="preserve"
   xmlns:inkscape="http://www.inkscape.org/namespaces/inkscape"
   xmlns:sodipodi="http://sodipodi.sourceforge.net/DTD/sodipodi-0.dtd"
   xmlns="http://www.w3.org/2000/svg"
   xmlns:svg="http://www.w3.org/2000/svg"
   xmlns:rdf="http://www.w3.org/1999/02/22-rdf-syntax-ns#"
   xmlns:cc="http://creativecommons.org/ns#"
   xmlns:dc="http://purl.org/dc/elements/1.1/"><defs
     id="defs2" /><sodipodi:namedview
     id="base"
     pagecolor="#000000"
     bordercolor="#666666"
     borderopacity="1.0"
     inkscape:pageopacity="0"
     inkscape:pageshadow="2"
     inkscape:zoom="0.9899495"
     inkscape:cx="6.5659915"
     inkscape:cy="223.24371"
     inkscape:document-units="mm"
     inkscape:current-layer="layer1"
     inkscape:document-rotation="0"
     showgrid="false"
     units="px"
     inkscape:window-width="1920"
     inkscape:window-height="1017"
     inkscape:window-x="-8"
     inkscape:window-y="-8"
     inkscape:window-maximized="1"
     inkscape:showpageshadow="2"
     inkscape:pagecheckerboard="0"
     inkscape:deskcolor="#000000" /><metadata
     id="metadata5"><rdf:RDF><cc:Work
         rdf:about=""><dc:format>image/svg+xml</dc:format><dc:type
           rdf:resource="http://purl.org/dc/dcmitype/StillImage" /><dc:title /></cc:Work></rdf:RDF></metadata><g
     inkscape:label="Layer 1"
     inkscape:groupmode="layer"
     id="layer1"><ellipse
       style="fill:none;stroke:#ffffff;stroke-width:2.59956;stroke-linecap:round;stroke-linejoin:round;stroke-miterlimit:4;stroke-dasharray:none;stroke-opacity:1;paint-order:stroke fill markers"
       id="path833"
       cx="33.866665"
       cy="33.866669"
       rx="32.566887"
       ry="32.566883" /><g
       inkscape:label="Layer 1"
       id="layer1-1"
       transform="translate(-118.93494,31.003265)"><path
         d="m 172.60033,17.756728 -8.80647,-8.806464 c 1.81957,-2.742378 2.88461,-6.025938 2.88461,-9.55580998 0,-9.56447602 -7.78133,-17.34580802 -17.34581,-17.34580802 -9.56448,0 -17.34581,7.781332 -17.34581,17.34580802 0,9.56448298 7.78133,17.34580798 17.34581,17.34580798 3.52987,0 6.81344,-1.065032 9.55581,-2.884608 l 8.80646,8.806471 c 1.35297,1.35471 3.55243,1.35471 4.9054,0 1.35471,-1.354711 1.35471,-3.550687 0,-4.905397 z M 137.19059,-0.60554598 c 0,-6.69548502 5.44659,-12.14206502 12.14207,-12.14206502 6.69548,0 12.14207,5.44658 12.14207,12.14206502 0,6.69548498 -5.44659,12.14206498 -12.14207,12.14206498 -6.69548,0 -12.14207,-5.44658 -12.14207,-12.14206498 z"
         id="XMLID_223_"
         style="fill:#ffffff;fill-opacity:1;stroke-width:1.73458" /></g></g></svg>
