<?xml version="1.0" encoding="UTF-8" standalone="no"?>
<svg
   width="256"
   height="256"
   viewBox="0 0 67.733331 67.733331"
   version="1.1"
   id="svg8"
   inkscape:version="1.4.2 (f4327f4, 2025-05-13)"
   sodipodi:docname="search-all-dialog.svg"
   xml:space="preserve"
   xmlns:inkscape="http://www.inkscape.org/namespaces/inkscape"
   xmlns:sodipodi="http://sodipodi.sourceforge.net/DTD/sodipodi-0.dtd"
   xmlns="http://www.w3.org/2000/svg"
   xmlns:svg="http://www.w3.org/2000/svg"
   xmlns:rdf="http://www.w3.org/1999/02/22-rdf-syntax-ns#"
   xmlns:cc="http://creativecommons.org/ns#"
   xmlns:dc="http://purl.org/dc/elements/1.1/"><defs
     id="defs2" /><sodipodi:namedview
     id="base"
     pagecolor="#000000"
     bordercolor="#666666"
     borderopacity="1.0"
     inkscape:pageopacity="0"
     inkscape:pageshadow="2"
     inkscape:zoom="0.7"
     inkscape:cx="-187.85714"
     inkscape:cy="197.85714"
     inkscape:document-units="mm"
     inkscape:current-layer="layer1"
     inkscape:document-rotation="0"
     showgrid="false"
     units="px"
     inkscape:window-width="1920"
     inkscape:window-height="1017"
     inkscape:window-x="-8"
     inkscape:window-y="-8"
     inkscape:window-maximized="1"
     inkscape:showpageshadow="2"
     inkscape:pagecheckerboard="0"
     inkscape:deskcolor="#000000" /><metadata
     id="metadata5"><rdf:RDF><cc:Work
         rdf:about=""><dc:format>image/svg+xml</dc:format><dc:type
           rdf:resource="http://purl.org/dc/dcmitype/StillImage" /><dc:title /></cc:Work></rdf:RDF></metadata><g
     inkscape:label="Layer 1"
     inkscape:groupmode="layer"
     id="layer1"><ellipse
       style="fill:none;stroke:#ffffff;stroke-width:2.59956;stroke-linecap:round;stroke-linejoin:round;stroke-miterlimit:4;stroke-dasharray:none;stroke-opacity:1;paint-order:stroke fill markers"
       id="path833"
       cx="33.866665"
       cy="33.866669"
       rx="32.566887"
       ry="32.566883" /><g
       inkscape:label="Layer 1"
       id="layer1-1"
       transform="translate(-118.93494,31.003265)"><path
         d="m 165.99595,13.296912 -4.77468,-4.7746709 c 0.98653,-1.4868569 1.56397,-3.2671307 1.56397,-5.18095 0,-5.1856482 -4.21887,-9.4045155 -9.40451,-9.4045155 -5.18566,0 -9.40452,4.2188673 -9.40452,9.4045155 0,5.1856525 4.21886,9.4045159 9.40452,9.4045159 1.91381,0 3.69409,-0.577437 5.18094,-1.563971 l 4.77468,4.774675 c 0.73355,0.734494 1.92604,0.734494 2.6596,0 0.73449,-0.734495 0.73449,-1.925105 0,-2.659599 z M 146.79756,3.3412911 c 0,-3.63014477 2.95302,-6.58316 6.58317,-6.58316 3.63014,0 6.58316,2.95301523 6.58316,6.58316 0,3.6301448 -2.95302,6.5831597 -6.58316,6.5831597 -3.63015,0 -6.58317,-2.9530149 -6.58317,-6.5831597 z"
         id="XMLID_223_"
         style="fill:#ffffff;fill-opacity:1;stroke-width:0.940451" /></g><path
       style="fill:#ffffff;fill-opacity:1;stroke-width:0.542178"
       d="m 15.754418,56.997844 c -0.776634,-0.189915 -1.609927,-0.705781 -2.139581,-1.324558 -0.909759,-1.062853 -0.944619,-1.350413 -0.944619,-7.793444 0,-6.779122 0.0095,-6.842125 1.209983,-8.042626 1.09129,-1.091287 1.5934,-1.209981 5.118573,-1.209981 1.558507,0 2.993039,0.0606 3.187844,0.134664 0.629533,0.239348 0.955545,0.721366 0.955545,1.412796 0,0.522765 -0.07738,0.704941 -0.445524,1.048835 l -0.445524,0.416182 h -2.972301 c -2.921438,0 -2.977633,0.0057 -3.284214,0.332011 -0.309258,0.329201 -0.311904,0.379504 -0.311904,5.942812 v 5.610804 l 0.377976,0.297314 c 0.368669,0.290001 0.525311,0.297315 6.364233,0.297315 5.838928,0 5.995565,-0.0073 6.364237,-0.297315 l 0.377974,-0.297314 5.36e-4,-2.607572 c 6.5e-4,-3.030433 0.110478,-3.38983 1.129461,-3.695126 0.497813,-0.149148 0.630213,-0.135534 1.04656,0.107628 0.807881,0.471825 0.846704,0.664752 0.803398,3.992402 -0.03896,2.993977 -0.04163,3.016586 -0.432685,3.681827 -0.216414,0.368139 -0.665465,0.902158 -0.997892,1.186703 -1.07226,0.917815 -1.297111,0.942973 -8.281759,0.926561 -3.43748,-0.0081 -6.443614,-0.06205 -6.680317,-0.119918 z M 15.037163,30.972938 c -0.827949,-0.387258 -1.542085,-1.065445 -1.985111,-1.885211 -0.304599,-0.563613 -0.310101,-0.687184 -0.310101,-6.957386 0,-6.304558 0.0042,-6.390891 0.315899,-6.974093 0.507032,-0.947772 1.007202,-1.449926 1.833602,-1.840874 l 0.773482,-0.365913 h 6.794648 6.794653 l 0.745082,0.37129 c 0.409795,0.204209 0.972625,0.637123 1.250734,0.96203 0.796625,0.930676 0.929541,1.617573 0.929541,4.80374 v 2.785608 l -0.506084,0.506086 c -0.457519,0.457517 -0.562868,0.498468 -1.097773,0.426722 -0.368759,-0.04946 -0.732073,-0.219617 -0.96429,-0.45162 -0.371742,-0.371398 -0.372707,-0.378633 -0.41751,-3.129478 -0.03707,-2.276326 -0.08474,-2.801229 -0.273272,-3.00956 -0.211318,-0.233503 -0.69732,-0.252342 -6.509855,-0.252342 h -6.281491 l -0.223305,0.318822 c -0.192746,0.275186 -0.223316,1.076409 -0.223316,5.854083 0,4.549185 0.03626,5.584868 0.203245,5.81372 0.186232,0.255141 0.444249,0.284463 3.081326,0.350184 l 2.878077,0.07172 0.397372,0.397752 c 0.317928,0.318233 0.397368,0.528504 0.397368,1.051789 0,0.557453 -0.06918,0.715852 -0.468479,1.072623 l -0.46848,0.418588 -2.974351,-0.0014 c -2.816258,-0.0013 -3.012473,-0.01923 -3.691611,-0.336882 z m 32.94362,-0.02422 c -0.545169,-0.458731 -0.676755,-1.029862 -0.393478,-1.70784 0.345825,-0.827672 0.800001,-0.94213 3.738423,-0.94213 2.323735,0 2.536824,-0.02182 2.801907,-0.286904 0.27718,-0.277179 0.286902,-0.47817 0.286902,-5.930994 0,-5.285721 -0.01666,-5.659165 -0.262335,-5.881501 -0.235664,-0.213274 -0.898409,-0.23741 -6.518897,-0.23741 h -6.256564 l -0.223311,0.318822 c -0.182448,0.26048 -0.223312,0.801232 -0.223312,2.955095 v 2.636275 l -0.487733,0.487736 c -0.644405,0.644405 -1.314677,0.667719 -1.984537,0.06902 l -0.46848,-0.418706 v -3.131713 c 0,-2.953164 0.01802,-3.16538 0.315909,-3.722226 0.507033,-0.947772 1.007202,-1.449925 1.833599,-1.840874 l 0.773477,-0.365913 h 6.759975 6.759975 l 0.7763,0.367249 c 0.426964,0.201986 0.994224,0.621843 1.260575,0.933015 0.923579,1.078996 0.957928,1.36114 0.957035,7.861227 -4.82e-4,3.52479 -0.05871,6.037702 -0.147314,6.35668 -0.279599,1.006677 -0.996917,1.866711 -1.980325,2.374328 l -0.909104,0.469262 h -2.988936 c -2.987437,0 -2.989153,-1.82e-4 -3.419751,-0.362505 z"
       id="path1"
       sodipodi:nodetypes="sssssssscssscsssccsssssssssscscccssscsssssscsssscsssccssssssssscsscsscssscccssssscsss" /></g></svg>
