<?xml version="1.0" encoding="UTF-8" standalone="no"?>
<svg
   width="256"
   height="256"
   viewBox="0 0 67.733331 67.733331"
   version="1.1"
   id="svg8"
   inkscape:version="1.4.2 (f4327f4, 2025-05-13)"
   sodipodi:docname="symbols.svg"
   xml:space="preserve"
   xmlns:inkscape="http://www.inkscape.org/namespaces/inkscape"
   xmlns:sodipodi="http://sodipodi.sourceforge.net/DTD/sodipodi-0.dtd"
   xmlns="http://www.w3.org/2000/svg"
   xmlns:svg="http://www.w3.org/2000/svg"
   xmlns:rdf="http://www.w3.org/1999/02/22-rdf-syntax-ns#"
   xmlns:cc="http://creativecommons.org/ns#"
   xmlns:dc="http://purl.org/dc/elements/1.1/"><defs
     id="defs2" /><sodipodi:namedview
     id="base"
     pagecolor="#000000"
     bordercolor="#666666"
     borderopacity="1.0"
     inkscape:pageopacity="0"
     inkscape:pageshadow="2"
     inkscape:zoom="0.9899495"
     inkscape:cx="7.576144"
     inkscape:cy="222.73863"
     inkscape:document-units="mm"
     inkscape:current-layer="layer1"
     inkscape:document-rotation="0"
     showgrid="false"
     units="px"
     inkscape:window-width="1920"
     inkscape:window-height="1017"
     inkscape:window-x="-8"
     inkscape:window-y="-8"
     inkscape:window-maximized="1"
     inkscape:showpageshadow="2"
     inkscape:pagecheckerboard="0"
     inkscape:deskcolor="#000000" /><metadata
     id="metadata5"><rdf:RDF><cc:Work
         rdf:about=""><dc:format>image/svg+xml</dc:format><dc:type
           rdf:resource="http://purl.org/dc/dcmitype/StillImage" /><dc:title /></cc:Work></rdf:RDF></metadata><g
     inkscape:label="Layer 1"
     inkscape:groupmode="layer"
     id="layer1"><ellipse
       style="fill:none;stroke:#ffffff;stroke-width:2.59956;stroke-linecap:round;stroke-linejoin:round;stroke-miterlimit:4;stroke-dasharray:none;stroke-opacity:1;paint-order:stroke fill markers"
       id="path833"
       cx="33.866665"
       cy="33.866669"
       rx="32.566887"
       ry="32.566883" /><path
       style="fill:#ffffff;fill-opacity:1"
       d="m 28.438026,50.658121 c -4.65483,-1.12669 -8.122781,-4.74934 -9.856219,-10.29588 -0.411833,-1.31775 -0.496294,-2.44169 -0.49707,-6.61458 -8.83e-4,-4.742008 0.0399,-5.155376 0.719081,-7.289428 1.580071,-4.964701 5.096981,-8.481455 9.496016,-9.495596 1.720748,-0.396696 5.197774,-0.336154 6.992441,0.121754 1.951742,0.497985 4.113028,1.971535 5.65768,3.857368 0.643676,0.78585 1.292445,1.428818 1.441708,1.428818 0.149264,0 0.609404,-1.101328 1.022535,-2.447395 l 0.751146,-2.447396 h 2.798937 c 2.54329,0 2.78599,0.04229 2.65716,0.46302 -1.56424,5.108078 -3.6241,14.147952 -3.6241,15.904655 0,2.04485 2.48946,13.14938 3.58193,15.97764 0.16312,0.42229 -0.0572,0.46302 -2.50469,0.46302 h -2.683543 l -0.529648,-1.23562 c -0.291306,-0.67959 -0.733559,-1.92958 -0.982785,-2.77776 -0.249225,-0.84817 -0.531068,-1.5423 -0.626318,-1.5425 -0.09525,-2.1e-4 -0.529953,0.6318 -0.966009,1.40444 -1.385138,2.45433 -3.478989,3.89597 -6.627923,4.56341 -2.182662,0.46262 -4.203112,0.45029 -6.220329,-0.038 z m 7.235961,-5.00866 c 1.195936,-0.61282 2.995462,-2.32314 3.753497,-3.56742 1.016761,-1.66898 1.596555,-4.10064 1.738207,-7.29005 0.245852,-5.535509 -0.655259,-8.823535 -3.082731,-11.248445 -1.702637,-1.70084 -3.26924,-2.363594 -5.587018,-2.363594 -3.754461,0 -6.388827,2.170819 -7.752519,6.388374 -1.088548,3.366603 -1.113646,9.003715 -0.05587,12.548935 0.938392,3.1451 3.370523,5.69595 5.936795,6.2266 1.450491,0.29993 3.717576,-0.0118 5.049639,-0.6944 z"
       id="path2" /></g></svg>
