<?xml version="1.0" encoding="UTF-8" standalone="no"?>
<!-- Created with Inkscape (http://www.inkscape.org/) -->

<svg
   version="1.1"
   id="svg32538"
   width="100"
   height="100"
   viewBox="0 0 100 100"
   sodipodi:docname="zoom-plus.svg"
   inkscape:export-filename="Screenshot 2022-11-26 155112.svg"
   inkscape:export-xdpi="96"
   inkscape:export-ydpi="96"
   inkscape:version="1.2.2 (732a01da63, 2022-12-09)"
   xml:space="preserve"
   xmlns:inkscape="http://www.inkscape.org/namespaces/inkscape"
   xmlns:sodipodi="http://sodipodi.sourceforge.net/DTD/sodipodi-0.dtd"
   xmlns="http://www.w3.org/2000/svg"
   xmlns:svg="http://www.w3.org/2000/svg"><defs
     id="defs32542" /><sodipodi:namedview
     id="namedview32540"
     pagecolor="#ffffff"
     bordercolor="#999999"
     borderopacity="1"
     inkscape:showpageshadow="0"
     inkscape:pageopacity="0"
     inkscape:pagecheckerboard="0"
     inkscape:deskcolor="#d1d1d1"
     showgrid="false"
     inkscape:zoom="3.4456992"
     inkscape:cx="4.6434698"
     inkscape:cy="39.469493"
     inkscape:window-width="1920"
     inkscape:window-height="1017"
     inkscape:window-x="-8"
     inkscape:window-y="-8"
     inkscape:window-maximized="1"
     inkscape:current-layer="g32544" /><g
     inkscape:groupmode="layer"
     inkscape:label="Image"
     id="g32544"
     transform="translate(-9.9999952,-10)"><g
       id="g3933"
       transform="matrix(2.0476412,0,0,2.0476412,10.856606,10.856611)"
       style="stroke:none;stroke-opacity:0.3019608"><path
         d="M 0,0 H 48 V 48 H 0 Z"
         fill="none"
         id="path2"
         style="stroke:none;stroke-opacity:0.3019608" /><path
         d="M 10,30 H 6 v 8 c 0,2.21 1.79,4 4,4 h 8 v -4 h -8 z m 0,-20 h 8 V 6 H 10 C 7.79,6 6,7.79 6,10 v 8 h 4 z M 38,6 h -8 v 4 h 8 v 8 h 4 V 10 C 42,7.79 40.21,6 38,6 Z m 0,32 h -8 v 4 h 8 c 2.21,0 4,-1.79 4,-4 v -8 h -4 z"
         id="path4"
         style="fill:#cccccc;fill-opacity:1;stroke:none;stroke-width:3;stroke-dasharray:none;stroke-opacity:0.3019608;paint-order:stroke markers fill"
         sodipodi:nodetypes="ccsscccccccsscccscccccsscccssccc" /></g><g
       id="g1065"
       transform="translate(-62.20881,57.111829)"
       style="stroke:#cccccc;stroke-opacity:0.3019608"><path
         id="path291-4"
         style="color:#000000;fill:#cccccc;fill-opacity:1;stroke:none;stroke-width:4.35348;stroke-miterlimit:3.7;stroke-dasharray:none;stroke-opacity:0.301961;paint-order:stroke fill markers"
         d="m 118.43919,-18.595789 v 17.2268472 h -16.45876 v 7.0942419 h 16.45876 V 24.372131 h 7.53923 V 5.7253001 h 16.45876 V -1.3689418 H 125.97842 V -18.595789 Z"
         sodipodi:nodetypes="ccccccccccccc" /><g
         aria-label="+"
         id="text955-7"
         style="font-size:57.2089px;line-height:1.25;font-family:Roboto;-inkscape-font-specification:Roboto;stroke-width:1.43023;stroke:#cccccc;stroke-opacity:0.3019608" /></g></g></svg>
